G04 Layer: BottomLayer*
G04 EasyEDA v6.4.7, 2021-03-07T11:36:16+08:00*
G04 29a609c2d2ff474892d28cb6706061f2,5c8f5cfc3ab7496db0bfa80374e2e714,10*
G04 Gerber Generator version 0.2*
G04 Scale: 100 percent, Rotated: No, Reflected: No *
G04 Dimensions in millimeters *
G04 leading zeros omitted , absolute positions ,3 integer and 3 decimal *
%FSLAX33Y33*%
%MOMM*%
G90*
D02*

%ADD10C,1.999996*%
%ADD11C,0.299999*%
%ADD12C,0.499999*%
%ADD13C,1.524000*%
%ADD14C,1.799996*%
%ADD15R,1.799996X1.574800*%
%ADD16R,1.799996X1.799996*%
%ADD17C,4.999990*%

%LPD*%
G36*
G01X113898Y48499D02*
G01X106101Y48499D01*
G01X106087Y48498D01*
G01X106073Y48495D01*
G01X106059Y48490D01*
G01X106046Y48484D01*
G01X106035Y48475D01*
G01X106024Y48464D01*
G01X106016Y48453D01*
G01X106009Y48440D01*
G01X106004Y48427D01*
G01X106000Y48412D01*
G01X105999Y48398D01*
G01X105999Y38101D01*
G01X106000Y38087D01*
G01X106004Y38073D01*
G01X106009Y38059D01*
G01X106016Y38046D01*
G01X106024Y38034D01*
G01X106035Y38024D01*
G01X106046Y38016D01*
G01X106059Y38009D01*
G01X106073Y38003D01*
G01X106087Y38000D01*
G01X106101Y37999D01*
G01X113898Y37999D01*
G01X113913Y38000D01*
G01X113926Y38003D01*
G01X113940Y38009D01*
G01X113953Y38016D01*
G01X113964Y38024D01*
G01X113975Y38034D01*
G01X113983Y38046D01*
G01X113990Y38059D01*
G01X113995Y38073D01*
G01X113998Y38087D01*
G01X113999Y38101D01*
G01X113999Y48398D01*
G01X113998Y48412D01*
G01X113995Y48427D01*
G01X113990Y48440D01*
G01X113983Y48453D01*
G01X113975Y48464D01*
G01X113964Y48475D01*
G01X113953Y48484D01*
G01X113940Y48490D01*
G01X113926Y48495D01*
G01X113913Y48498D01*
G01X113898Y48499D01*
G37*

%LPD*%
G36*
G01X113898Y34999D02*
G01X106101Y35000D01*
G01X106087Y34999D01*
G01X106073Y34996D01*
G01X106059Y34991D01*
G01X106046Y34983D01*
G01X106035Y34975D01*
G01X106024Y34965D01*
G01X106016Y34953D01*
G01X106009Y34940D01*
G01X106004Y34927D01*
G01X106000Y34912D01*
G01X105999Y34898D01*
G01X105999Y25101D01*
G01X106000Y25087D01*
G01X106004Y25072D01*
G01X106009Y25059D01*
G01X106016Y25046D01*
G01X106024Y25035D01*
G01X106035Y25024D01*
G01X106046Y25015D01*
G01X106059Y25009D01*
G01X106073Y25004D01*
G01X106087Y25001D01*
G01X106101Y24999D01*
G01X113898Y24999D01*
G01X113912Y25001D01*
G01X113926Y25004D01*
G01X113940Y25009D01*
G01X113953Y25015D01*
G01X113964Y25024D01*
G01X113975Y25035D01*
G01X113983Y25046D01*
G01X113990Y25059D01*
G01X113995Y25072D01*
G01X113998Y25087D01*
G01X113999Y25101D01*
G01X113999Y34898D01*
G01X113998Y34912D01*
G01X113995Y34927D01*
G01X113990Y34940D01*
G01X113983Y34953D01*
G01X113975Y34964D01*
G01X113964Y34975D01*
G01X113953Y34983D01*
G01X113940Y34990D01*
G01X113926Y34995D01*
G01X113912Y34998D01*
G01X113898Y34999D01*
G37*

%LPD*%
G54D11*
G01X117649Y23960D02*
G01X117689Y24000D01*
G01X126500Y24000D01*
G01X133500Y33000D01*
G01X144260Y33000D01*
G01X150620Y39360D01*
G01X135380Y26660D02*
G01X141540Y20500D01*
G01X154000Y20500D01*
G01X154500Y19999D01*
G01X156500Y19999D01*
G01X128499Y21419D02*
G01X130000Y21000D01*
G01X133749Y17749D01*
G01X147250Y17750D01*
G01X148499Y16499D01*
G01X148499Y9999D01*
G01X149500Y8999D01*
G01X150740Y8999D01*
G01X150620Y8879D01*
G54D12*
G01X156500Y17459D02*
G01X156500Y17459D01*
G01X161499Y17459D01*
G01X32039Y32000D02*
G01X32039Y29539D01*
G01X19500Y16999D01*
G01X19500Y10750D01*
G01X16649Y7900D01*
G01X32039Y48659D02*
G01X32039Y32000D01*
G01X78500Y32230D02*
G01X98769Y32230D01*
G01X103159Y27839D01*
G01X78500Y40229D02*
G01X90769Y40229D01*
G01X103159Y27839D01*
G54D10*
G01X103159Y27839D02*
G01X103159Y23720D01*
G01X104540Y22339D01*
G54D12*
G01X66540Y48159D02*
G01X56880Y38499D01*
G01X40000Y38499D01*
G01X37999Y36499D01*
G01X37999Y11000D01*
G01X35400Y8400D01*
G01X29149Y8400D01*
G54D10*
G01X74160Y27839D02*
G01X79660Y22339D01*
G01X80425Y22339D01*
G01X53000Y9999D02*
G01X65340Y22339D01*
G01X70011Y22339D01*
G01X70000Y9999D02*
G01X82339Y22339D01*
G01X86140Y22339D01*
G01X87000Y9999D02*
G01X99340Y22339D01*
G01X102396Y22339D01*
G01X123000Y49500D02*
G01X115000Y49500D01*
G01X112500Y47000D01*
G01X125269Y35390D02*
G01X125250Y46749D01*
G01X123000Y49500D01*
G01X39660Y28338D02*
G01X39660Y27840D01*
G01X45248Y22250D01*
G01X110249Y22250D01*
G01X113501Y18999D01*
G01X123000Y19000D01*
G01X125269Y17610D01*
G01X113501Y18999D02*
G01X112999Y18999D01*
G01X104000Y9999D01*
G54D11*
G01X117649Y21420D02*
G01X128500Y21420D01*
G54D10*
G01X129079Y35390D02*
G01X129079Y34579D01*
G01X127000Y32500D01*
G01X124000Y32500D01*
G01X120500Y36000D01*
G01X116500Y36000D01*
G01X116500Y36000D01*
G01X114000Y33000D01*
G54D13*
G01X116999Y43999D03*
G01X157000Y3999D03*
G01X47000Y43999D03*
G01X6999Y3999D03*
G54D14*
G01X161499Y22539D03*
G01X161499Y19999D03*
G54D15*
G01X161499Y17459D03*
G54D14*
G01X156500Y22539D03*
G01X156500Y19999D03*
G54D15*
G01X156499Y17459D03*
G54D16*
G01X78500Y32230D03*
G54D14*
G01X78500Y34770D03*
G54D16*
G01X78500Y40230D03*
G54D14*
G01X78500Y42770D03*
G54D10*
G01X83500Y3999D03*
G01X97500Y3999D03*
G54D17*
G01X94000Y9999D03*
G01X87000Y9999D03*
G54D10*
G01X66499Y3999D03*
G01X80499Y3999D03*
G54D17*
G01X77000Y9999D03*
G01X70000Y9999D03*
G54D10*
G01X49499Y3999D03*
G01X63499Y3999D03*
G54D17*
G01X60000Y9999D03*
G01X53000Y9999D03*
G54D10*
G01X100500Y3999D03*
G01X114500Y3999D03*
G54D17*
G01X111000Y9999D03*
G01X104000Y9999D03*
G54D13*
G01X19339Y28339D03*
G01X39659Y28339D03*
G01X26959Y48659D03*
G01X32039Y48659D03*
G01X82839Y27839D03*
G01X103159Y27839D03*
G01X90459Y48159D03*
G01X95539Y48159D03*
G01X53840Y27839D03*
G01X74160Y27839D03*
G01X61460Y48159D03*
G01X66540Y48159D03*
G01X150620Y6340D03*
G01X150620Y8880D03*
G01X150620Y11420D03*
G01X150620Y13960D03*
G01X150620Y16500D03*
G01X150620Y19040D03*
G01X150620Y21580D03*
G01X150620Y24120D03*
G01X150620Y26660D03*
G01X150620Y29200D03*
G01X150620Y31740D03*
G01X150620Y34280D03*
G01X150620Y36820D03*
G01X150620Y39360D03*
G01X150620Y41900D03*
G01X135380Y41900D03*
G01X135380Y39360D03*
G01X135380Y36820D03*
G01X135380Y34280D03*
G01X135380Y31740D03*
G01X135380Y29200D03*
G01X135380Y26660D03*
G01X135380Y24120D03*
G01X135380Y21580D03*
G01X135380Y19040D03*
G01X135380Y16500D03*
G01X135380Y13960D03*
G01X135380Y11420D03*
G01X135380Y8880D03*
G01X135380Y6340D03*
G01X145540Y41900D03*
G01X143000Y41900D03*
G01X140460Y41900D03*
G01X145540Y44440D03*
G01X143000Y44440D03*
G01X140460Y44440D03*
G01X117649Y31580D03*
G01X117649Y29040D03*
G01X117649Y26500D03*
G01X117649Y23960D03*
G01X117649Y21420D03*
G01X125269Y17610D03*
G01X129079Y17610D03*
G01X125269Y35390D03*
G01X129079Y35390D03*
G54D10*
G01X15349Y14099D02*
G01X17949Y14099D01*
G01X17949Y7900D02*
G01X15349Y7900D01*
G01X21350Y12400D02*
G01X21350Y9800D01*
G01X27849Y14599D02*
G01X30449Y14599D01*
G01X30449Y8400D02*
G01X27849Y8400D01*
G01X33849Y12899D02*
G01X33849Y10299D01*
M00*
M02*
