;Layer: Drill PTH
;EasyEDA v6.4.7, 2021-03-07T11:36:16+08:00
;29a609c2d2ff474892d28cb6706061f2,5c8f5cfc3ab7496db0bfa80374e2e714,10
;Gerber Generator version 0.2
M48
METRIC,LZ,000.000
;Holesize 1 = 0.915 METRIC
T01C0.915
;Holesize 2 = 1.101 METRIC
T02C1.101
;Holesize 3 = 1.200 METRIC
T03C1.200
;Holesize 4 = 1.800 METRIC
T04C1.800
;Holesize 5 = 3.000 METRIC
T05C3.000
;Holesize 6 = 4.000 METRIC
T06C4.000
%
G05
G90
T01
X+019340Y+028339
X+039660Y+028339
X+026960Y+048659
X+032040Y+048659
X+082840Y+027840
X+103160Y+027840
X+090460Y+048160
X+095540Y+048160
X+053840Y+027840
X+074160Y+027840
X+061460Y+048160
X+066540Y+048160
X+150620Y+006339
X+150620Y+008879
X+150620Y+011419
X+150620Y+013959
X+150620Y+016499
X+150620Y+019039
X+150620Y+021579
X+150620Y+024119
X+150620Y+026659
X+150620Y+029199
X+150620Y+031739
X+150620Y+034279
X+150620Y+036819
X+150620Y+039359
X+150620Y+041899
X+135380Y+041899
X+135380Y+039359
X+135380Y+036819
X+135380Y+034279
X+135380Y+031739
X+135380Y+029199
X+135380Y+026659
X+135380Y+024119
X+135380Y+021579
X+135380Y+019039
X+135380Y+016499
X+135380Y+013959
X+135380Y+011419
X+135380Y+008879
X+135380Y+006339
X+145540Y+041899
X+143000Y+041899
X+140460Y+041899
X+145540Y+044439
X+143000Y+044439
X+140460Y+044439
X+117650Y+031579
X+117650Y+029039
X+117650Y+026499
X+117650Y+023959
X+117650Y+021419
X+125270Y+017609
X+129080Y+017609
X+125270Y+035389
X+129080Y+035389
T02
X+078500Y+032230
X+078500Y+034770
X+078500Y+040229
X+078500Y+042769
T03
X+161500Y+022540
X+161500Y+020000
X+161500Y+017460
X+156500Y+022540
X+156500Y+020000
X+156500Y+017460
X+017899Y+014099G85X+015399Y+014099
X+015399Y+007900G85X+017899Y+007900
X+021350Y+009850G85X+021350Y+012350
X+030399Y+014599G85X+027899Y+014599
X+027899Y+008400G85X+030399Y+008400
X+033850Y+010350G85X+033850Y+012850
T04
X+083499Y+003999
X+097499Y+003999
X+066499Y+003999
X+080499Y+003999
X+049499Y+003999
X+063499Y+003999
X+100499Y+003999
X+114499Y+003999
T05
X+093999Y+010000
X+086999Y+010000
X+076999Y+010000
X+069999Y+010000
X+059999Y+010000
X+052999Y+010000
X+110999Y+010000
X+103999Y+010000
T06
X+117000Y+044000
X+157000Y+004000
X+047000Y+044000
X+007000Y+004000
M30
