G04 Layer: TopSilkLayer*
G04 EasyEDA v6.4.7, 2021-03-07T11:36:16+08:00*
G04 29a609c2d2ff474892d28cb6706061f2,5c8f5cfc3ab7496db0bfa80374e2e714,10*
G04 Gerber Generator version 0.2*
G04 Scale: 100 percent, Rotated: No, Reflected: No *
G04 Dimensions in millimeters *
G04 leading zeros omitted , absolute positions ,3 integer and 3 decimal *
%FSLAX33Y33*%
%MOMM*%
G90*
D02*

%ADD18C,0.203200*%
%ADD19C,0.202999*%
%ADD20C,0.254000*%
%ADD22C,0.152400*%

%LPD*%
G54D18*
G01X160230Y18095D02*
G01X160230Y16190D01*
G01X162770Y16190D01*
G01X162770Y23810D01*
G01X160230Y23810D01*
G54D19*
G01X160230Y23810D02*
G01X160230Y18095D01*
G54D18*
G01X155230Y18095D02*
G01X155230Y16190D01*
G01X157770Y16190D01*
G01X157770Y23810D01*
G01X155230Y23810D01*
G54D19*
G01X155230Y23810D02*
G01X155230Y18095D01*
G54D20*
G01X77230Y33499D02*
G01X79770Y33499D01*
G01X77230Y36040D02*
G01X79770Y36040D01*
G01X79770Y30960D01*
G01X77230Y30960D01*
G01X77230Y30960D02*
G01X77230Y36040D01*
G01X77230Y41499D02*
G01X79770Y41499D01*
G01X77230Y44039D02*
G01X79770Y44039D01*
G01X79770Y38959D01*
G01X77230Y38959D01*
G01X77230Y38959D02*
G01X77230Y44039D01*
G01X85500Y4999D02*
G01X85500Y6999D01*
G01X95500Y6999D01*
G01X95500Y4999D01*
G01X95539Y49D02*
G01X95539Y2949D01*
G01X85379Y5D02*
G01X85379Y2949D01*
G01X85379Y5D02*
G01X95539Y49D01*
G01X97109Y5440D02*
G01X97109Y2449D01*
G01X83809Y5415D02*
G01X83809Y2519D01*
G01X95539Y2449D02*
G01X97109Y2449D01*
G01X83809Y2519D02*
G01X85379Y2519D01*
G01X95539Y5440D02*
G01X97109Y5440D01*
G01X83809Y5415D02*
G01X85379Y5415D01*
G01X68500Y4999D02*
G01X68500Y6999D01*
G01X78499Y6999D01*
G01X78499Y4999D01*
G01X78539Y49D02*
G01X78539Y2949D01*
G01X68379Y5D02*
G01X68379Y2949D01*
G01X68379Y5D02*
G01X78539Y49D01*
G01X80109Y5440D02*
G01X80109Y2449D01*
G01X66809Y5415D02*
G01X66809Y2519D01*
G01X78539Y2449D02*
G01X80109Y2449D01*
G01X66809Y2519D02*
G01X68379Y2519D01*
G01X78539Y5440D02*
G01X80109Y5440D01*
G01X66809Y5415D02*
G01X68379Y5415D01*
G01X51500Y4999D02*
G01X51500Y6999D01*
G01X61500Y6999D01*
G01X61500Y4999D01*
G01X61539Y49D02*
G01X61539Y2949D01*
G01X51379Y5D02*
G01X51379Y2949D01*
G01X51379Y5D02*
G01X61539Y49D01*
G01X63109Y5440D02*
G01X63109Y2449D01*
G01X49809Y5415D02*
G01X49809Y2519D01*
G01X61539Y2449D02*
G01X63109Y2449D01*
G01X49809Y2519D02*
G01X51379Y2519D01*
G01X61539Y5440D02*
G01X63109Y5440D01*
G01X49809Y5415D02*
G01X51379Y5415D01*
G01X102500Y4999D02*
G01X102500Y6999D01*
G01X112500Y6999D01*
G01X112500Y4999D01*
G01X112539Y49D02*
G01X112539Y2949D01*
G01X102379Y5D02*
G01X102379Y2949D01*
G01X102379Y5D02*
G01X112539Y49D01*
G01X114109Y5440D02*
G01X114109Y2449D01*
G01X100809Y5415D02*
G01X100809Y2519D01*
G01X112539Y2449D02*
G01X114109Y2449D01*
G01X100809Y2519D02*
G01X102379Y2519D01*
G01X112539Y5440D02*
G01X114109Y5440D01*
G01X100809Y5415D02*
G01X102379Y5415D01*
G01X17500Y26500D02*
G01X17500Y50499D01*
G01X41499Y50499D01*
G01X41499Y26500D01*
G01X17500Y26500D01*
G01X81000Y26000D02*
G01X81000Y49999D01*
G01X104999Y49999D01*
G01X104999Y26000D01*
G01X81000Y26000D01*
G01X52000Y26000D02*
G01X52000Y49999D01*
G01X76000Y49999D01*
G01X76000Y26000D01*
G01X52000Y26000D01*
G01X21149Y200D02*
G01X12149Y200D01*
G01X12149Y200D02*
G01X12149Y14600D01*
G01X21149Y3900D02*
G01X12149Y3900D01*
G01X19849Y3980D02*
G01X19849Y14600D01*
G01X13449Y3980D02*
G01X13449Y14600D01*
G01X12149Y14600D02*
G01X14225Y14600D01*
G01X19074Y14600D02*
G01X21149Y14600D01*
G01X21149Y200D02*
G01X21149Y8585D01*
G01X21149Y13614D02*
G01X21149Y14600D01*
G01X33649Y700D02*
G01X24649Y700D01*
G01X24649Y700D02*
G01X24649Y15100D01*
G01X33649Y4400D02*
G01X24649Y4400D01*
G01X32349Y4480D02*
G01X32349Y15100D01*
G01X25949Y4480D02*
G01X25949Y15100D01*
G01X24649Y15100D02*
G01X26725Y15100D01*
G01X31574Y15100D02*
G01X33649Y15100D01*
G01X33649Y700D02*
G01X33649Y9085D01*
G01X33649Y14114D02*
G01X33649Y15100D01*
G01X151890Y2529D02*
G01X134110Y2529D01*
G01X134110Y45709D01*
G01X151890Y45709D01*
G01X151890Y2529D01*
G01X146810Y-10D02*
G01X139190Y-10D01*
G01X139190Y8879D01*
G01X146810Y8879D01*
G01X146810Y-10D01*
G01X116380Y39199D02*
G01X131620Y39199D01*
G01X131620Y13799D01*
G01X116380Y13799D01*
G01X116380Y39199D01*

%LPD*%
G36*
G01X10497Y47099D02*
G01X10373Y47099D01*
G01X10337Y46766D01*
G01X10276Y46763D01*
G01X10214Y46760D01*
G01X10153Y46759D01*
G01X10089Y46757D01*
G01X10022Y46757D01*
G01X9950Y46756D01*
G01X9468Y46756D01*
G01X9411Y46757D01*
G01X9290Y46757D01*
G01X9229Y46758D01*
G01X9167Y46759D01*
G01X9105Y46759D01*
G01X9044Y46760D01*
G01X8984Y46761D01*
G01X8927Y46762D01*
G01X8872Y46764D01*
G01X8826Y47071D01*
G01X8697Y47071D01*
G01X8697Y46111D01*
G01X8826Y46111D01*
G01X8872Y46401D01*
G01X8927Y46402D01*
G01X8984Y46403D01*
G01X9044Y46404D01*
G01X9167Y46406D01*
G01X9229Y46406D01*
G01X9290Y46407D01*
G01X9351Y46407D01*
G01X9411Y46408D01*
G01X10190Y46408D01*
G01X10236Y46356D01*
G01X10278Y46305D01*
G01X10314Y46256D01*
G01X10347Y46209D01*
G01X10375Y46162D01*
G01X10399Y46116D01*
G01X10420Y46071D01*
G01X10436Y46026D01*
G01X10449Y45981D01*
G01X10457Y45935D01*
G01X10462Y45889D01*
G01X10464Y45842D01*
G01X10461Y45786D01*
G01X10453Y45734D01*
G01X10439Y45689D01*
G01X10417Y45648D01*
G01X10389Y45612D01*
G01X10353Y45582D01*
G01X10310Y45556D01*
G01X10257Y45535D01*
G01X10196Y45519D01*
G01X10126Y45508D01*
G01X10046Y45501D01*
G01X9956Y45499D01*
G01X9465Y45499D01*
G01X9407Y45500D01*
G01X9286Y45500D01*
G01X9162Y45502D01*
G01X9101Y45502D01*
G01X9041Y45503D01*
G01X8982Y45504D01*
G01X8925Y45505D01*
G01X8872Y45507D01*
G01X8826Y45822D01*
G01X8697Y45822D01*
G01X8697Y44861D01*
G01X8826Y44861D01*
G01X8872Y45149D01*
G01X8925Y45150D01*
G01X8982Y45152D01*
G01X9041Y45153D01*
G01X9101Y45155D01*
G01X9162Y45156D01*
G01X9224Y45156D01*
G01X9286Y45157D01*
G01X9347Y45158D01*
G01X9465Y45158D01*
G01X9520Y45159D01*
G01X10030Y45159D01*
G01X10085Y45162D01*
G01X10136Y45166D01*
G01X10185Y45171D01*
G01X10233Y45117D01*
G01X10276Y45064D01*
G01X10314Y45013D01*
G01X10348Y44964D01*
G01X10377Y44915D01*
G01X10401Y44868D01*
G01X10421Y44822D01*
G01X10437Y44777D01*
G01X10449Y44732D01*
G01X10458Y44688D01*
G01X10462Y44644D01*
G01X10464Y44600D01*
G01X10462Y44542D01*
G01X10454Y44490D01*
G01X10441Y44443D01*
G01X10421Y44402D01*
G01X10394Y44365D01*
G01X10360Y44334D01*
G01X10318Y44308D01*
G01X10266Y44286D01*
G01X10206Y44270D01*
G01X10136Y44258D01*
G01X10056Y44251D01*
G01X9964Y44249D01*
G01X9465Y44249D01*
G01X9407Y44250D01*
G01X9286Y44250D01*
G01X9162Y44252D01*
G01X9101Y44252D01*
G01X9041Y44253D01*
G01X8982Y44254D01*
G01X8925Y44255D01*
G01X8872Y44257D01*
G01X8826Y44564D01*
G01X8697Y44564D01*
G01X8697Y43609D01*
G01X8826Y43609D01*
G01X8872Y43901D01*
G01X8925Y43902D01*
G01X8982Y43903D01*
G01X9041Y43904D01*
G01X9101Y43905D01*
G01X9162Y43906D01*
G01X9224Y43907D01*
G01X9286Y43907D01*
G01X9347Y43908D01*
G01X9465Y43908D01*
G01X9520Y43909D01*
G01X10007Y43909D01*
G01X10100Y43911D01*
G01X10186Y43918D01*
G01X10264Y43929D01*
G01X10336Y43945D01*
G01X10403Y43964D01*
G01X10461Y43989D01*
G01X10515Y44017D01*
G01X10562Y44049D01*
G01X10602Y44085D01*
G01X10637Y44125D01*
G01X10667Y44169D01*
G01X10690Y44216D01*
G01X10708Y44268D01*
G01X10721Y44323D01*
G01X10729Y44380D01*
G01X10731Y44442D01*
G01X10730Y44492D01*
G01X10725Y44542D01*
G01X10717Y44592D01*
G01X10707Y44642D01*
G01X10694Y44691D01*
G01X10677Y44740D01*
G01X10657Y44788D01*
G01X10634Y44837D01*
G01X10608Y44884D01*
G01X10579Y44931D01*
G01X10547Y44977D01*
G01X10511Y45023D01*
G01X10473Y45068D01*
G01X10431Y45111D01*
G01X10386Y45155D01*
G01X10337Y45197D01*
G01X10403Y45217D01*
G01X10462Y45241D01*
G01X10515Y45268D01*
G01X10562Y45300D01*
G01X10602Y45335D01*
G01X10637Y45375D01*
G01X10666Y45418D01*
G01X10690Y45464D01*
G01X10708Y45516D01*
G01X10721Y45570D01*
G01X10729Y45629D01*
G01X10731Y45692D01*
G01X10728Y45756D01*
G01X10719Y45821D01*
G01X10704Y45885D01*
G01X10683Y45949D01*
G01X10658Y46013D01*
G01X10627Y46076D01*
G01X10591Y46137D01*
G01X10551Y46198D01*
G01X10507Y46256D01*
G01X10458Y46313D01*
G01X10406Y46368D01*
G01X10350Y46421D01*
G01X10688Y46454D01*
G01X10726Y46512D01*
G01X10497Y47099D01*
G37*

%LPD*%
G36*
G01X9201Y43290D02*
G01X9154Y43292D01*
G01X9093Y43289D01*
G01X9035Y43281D01*
G01X8982Y43267D01*
G01X8932Y43248D01*
G01X8887Y43225D01*
G01X8845Y43198D01*
G01X8807Y43166D01*
G01X8773Y43130D01*
G01X8742Y43091D01*
G01X8716Y43049D01*
G01X8694Y43003D01*
G01X8676Y42955D01*
G01X8662Y42905D01*
G01X8651Y42852D01*
G01X8645Y42797D01*
G01X8643Y42741D01*
G01X8645Y42680D01*
G01X8652Y42623D01*
G01X8664Y42569D01*
G01X8680Y42518D01*
G01X8701Y42468D01*
G01X8726Y42420D01*
G01X8756Y42371D01*
G01X8791Y42324D01*
G01X8831Y42274D01*
G01X8875Y42224D01*
G01X8924Y42171D01*
G01X8979Y42116D01*
G01X8906Y42098D01*
G01X8841Y42071D01*
G01X8786Y42036D01*
G01X8738Y41993D01*
G01X8701Y41942D01*
G01X8673Y41883D01*
G01X8657Y41816D01*
G01X8651Y41742D01*
G01X8653Y41689D01*
G01X8662Y41638D01*
G01X8677Y41590D01*
G01X8698Y41544D01*
G01X8728Y41501D01*
G01X8764Y41459D01*
G01X8810Y41420D01*
G01X8864Y41384D01*
G01X8943Y41460D01*
G01X8900Y41500D01*
G01X8868Y41538D01*
G01X8848Y41580D01*
G01X8841Y41628D01*
G01X8844Y41662D01*
G01X8855Y41692D01*
G01X8873Y41717D01*
G01X8900Y41739D01*
G01X8936Y41757D01*
G01X8983Y41770D01*
G01X9040Y41777D01*
G01X9108Y41780D01*
G01X10015Y41780D01*
G01X10090Y41782D01*
G01X10161Y41787D01*
G01X10227Y41794D01*
G01X10288Y41805D01*
G01X10345Y41820D01*
G01X10398Y41837D01*
G01X10446Y41858D01*
G01X10491Y41882D01*
G01X10531Y41909D01*
G01X10567Y41939D01*
G01X10600Y41973D01*
G01X10628Y42010D01*
G01X10653Y42051D01*
G01X10674Y42094D01*
G01X10692Y42142D01*
G01X10706Y42192D01*
G01X10717Y42246D01*
G01X10725Y42303D01*
G01X10730Y42364D01*
G01X10731Y42428D01*
G01X10729Y42507D01*
G01X10722Y42583D01*
G01X10711Y42656D01*
G01X10696Y42725D01*
G01X10676Y42791D01*
G01X10652Y42853D01*
G01X10624Y42911D01*
G01X10593Y42965D01*
G01X10558Y43015D01*
G01X10519Y43061D01*
G01X10477Y43102D01*
G01X10431Y43139D01*
G01X10382Y43170D01*
G01X10329Y43197D01*
G01X10274Y43219D01*
G01X10216Y43236D01*
G01X10147Y43217D01*
G01X10097Y43180D01*
G01X10066Y43124D01*
G01X10056Y43048D01*
G01X10068Y42975D01*
G01X10105Y42916D01*
G01X10166Y42871D01*
G01X10251Y42840D01*
G01X10536Y42758D01*
G01X10551Y42695D01*
G01X10562Y42635D01*
G01X10569Y42578D01*
G01X10571Y42522D01*
G01X10569Y42455D01*
G01X10561Y42395D01*
G01X10548Y42341D01*
G01X10528Y42293D01*
G01X10501Y42252D01*
G01X10466Y42217D01*
G01X10423Y42187D01*
G01X10370Y42164D01*
G01X10308Y42146D01*
G01X10234Y42133D01*
G01X10150Y42125D01*
G01X10053Y42123D01*
G01X9923Y42123D01*
G01X9908Y42186D01*
G01X9892Y42250D01*
G01X9876Y42313D01*
G01X9858Y42376D01*
G01X9841Y42436D01*
G01X9822Y42495D01*
G01X9804Y42551D01*
G01X9786Y42603D01*
G01X9750Y42700D01*
G01X9713Y42789D01*
G01X9677Y42869D01*
G01X9641Y42940D01*
G01X9604Y43004D01*
G01X9567Y43060D01*
G01X9530Y43109D01*
G01X9492Y43151D01*
G01X9453Y43187D01*
G01X9414Y43217D01*
G01X9373Y43241D01*
G01X9332Y43260D01*
G01X9289Y43274D01*
G01X9246Y43284D01*
G01X9201Y43290D01*
G37*

%LPC*%
G36*
G01X9248Y42937D02*
G01X9210Y42939D01*
G01X9131Y42932D01*
G01X9065Y42913D01*
G01X9009Y42882D01*
G01X8964Y42842D01*
G01X8930Y42792D01*
G01X8906Y42734D01*
G01X8892Y42669D01*
G01X8887Y42598D01*
G01X8890Y42545D01*
G01X8899Y42494D01*
G01X8916Y42444D01*
G01X8940Y42392D01*
G01X8973Y42336D01*
G01X9016Y42274D01*
G01X9068Y42204D01*
G01X9131Y42123D01*
G01X9794Y42123D01*
G01X9777Y42178D01*
G01X9761Y42233D01*
G01X9744Y42285D01*
G01X9711Y42384D01*
G01X9695Y42429D01*
G01X9681Y42470D01*
G01X9667Y42507D01*
G01X9631Y42592D01*
G01X9595Y42666D01*
G01X9558Y42728D01*
G01X9520Y42781D01*
G01X9481Y42825D01*
G01X9443Y42860D01*
G01X9404Y42887D01*
G01X9365Y42908D01*
G01X9326Y42922D01*
G01X9286Y42932D01*
G01X9248Y42937D01*
G37*

%LPD*%
G36*
G01X9735Y41169D02*
G01X9667Y41171D01*
G01X9602Y41169D01*
G01X9539Y41165D01*
G01X9478Y41159D01*
G01X9418Y41150D01*
G01X9360Y41138D01*
G01X9304Y41125D01*
G01X9250Y41108D01*
G01X9197Y41090D01*
G01X9147Y41069D01*
G01X9098Y41046D01*
G01X9052Y41021D01*
G01X9008Y40994D01*
G01X8966Y40964D01*
G01X8926Y40933D01*
G01X8889Y40900D01*
G01X8854Y40865D01*
G01X8822Y40827D01*
G01X8792Y40788D01*
G01X8764Y40748D01*
G01X8739Y40706D01*
G01X8717Y40662D01*
G01X8698Y40616D01*
G01X8681Y40569D01*
G01X8668Y40521D01*
G01X8657Y40470D01*
G01X8649Y40419D01*
G01X8645Y40366D01*
G01X8643Y40312D01*
G01X8645Y40250D01*
G01X8652Y40191D01*
G01X8663Y40135D01*
G01X8678Y40081D01*
G01X8698Y40029D01*
G01X8721Y39980D01*
G01X8748Y39933D01*
G01X8780Y39888D01*
G01X8814Y39844D01*
G01X8853Y39803D01*
G01X8895Y39764D01*
G01X8940Y39726D01*
G01X8653Y39703D01*
G01X8697Y39055D01*
G01X8826Y39055D01*
G01X8864Y39395D01*
G01X11158Y39395D01*
G01X11752Y39383D01*
G01X11783Y39436D01*
G01X11607Y40081D01*
G01X11480Y40081D01*
G01X11450Y39731D01*
G01X10459Y39731D01*
G01X10508Y39774D01*
G01X10551Y39819D01*
G01X10588Y39863D01*
G01X10621Y39907D01*
G01X10649Y39952D01*
G01X10672Y39997D01*
G01X10691Y40043D01*
G01X10706Y40089D01*
G01X10717Y40136D01*
G01X10725Y40183D01*
G01X10730Y40231D01*
G01X10731Y40279D01*
G01X10730Y40334D01*
G01X10725Y40387D01*
G01X10717Y40439D01*
G01X10706Y40490D01*
G01X10692Y40540D01*
G01X10675Y40588D01*
G01X10656Y40635D01*
G01X10633Y40680D01*
G01X10608Y40724D01*
G01X10580Y40767D01*
G01X10549Y40807D01*
G01X10516Y40845D01*
G01X10480Y40882D01*
G01X10442Y40917D01*
G01X10401Y40950D01*
G01X10357Y40981D01*
G01X10312Y41010D01*
G01X10264Y41037D01*
G01X10214Y41062D01*
G01X10161Y41083D01*
G01X10106Y41103D01*
G01X10049Y41121D01*
G01X9991Y41136D01*
G01X9930Y41148D01*
G01X9867Y41158D01*
G01X9802Y41165D01*
G01X9735Y41169D01*
G37*

%LPC*%
G36*
G01X9766Y40803D02*
G01X9680Y40805D01*
G01X9595Y40803D01*
G01X9516Y40797D01*
G01X9441Y40788D01*
G01X9371Y40776D01*
G01X9307Y40760D01*
G01X9246Y40742D01*
G01X9190Y40719D01*
G01X9140Y40695D01*
G01X9093Y40667D01*
G01X9051Y40636D01*
G01X9013Y40604D01*
G01X8980Y40568D01*
G01X8950Y40531D01*
G01X8925Y40491D01*
G01X8903Y40449D01*
G01X8887Y40405D01*
G01X8873Y40360D01*
G01X8864Y40312D01*
G01X8858Y40264D01*
G01X8857Y40213D01*
G01X8859Y40147D01*
G01X8868Y40084D01*
G01X8884Y40025D01*
G01X8907Y39967D01*
G01X8939Y39911D01*
G01X8980Y39854D01*
G01X9031Y39797D01*
G01X9093Y39738D01*
G01X10299Y39738D01*
G01X10357Y39806D01*
G01X10405Y39870D01*
G01X10443Y39931D01*
G01X10473Y39991D01*
G01X10494Y40048D01*
G01X10509Y40103D01*
G01X10517Y40157D01*
G01X10520Y40211D01*
G01X10518Y40258D01*
G01X10513Y40305D01*
G01X10504Y40351D01*
G01X10490Y40395D01*
G01X10473Y40438D01*
G01X10451Y40480D01*
G01X10426Y40520D01*
G01X10396Y40558D01*
G01X10362Y40594D01*
G01X10324Y40628D01*
G01X10281Y40659D01*
G01X10233Y40688D01*
G01X10181Y40714D01*
G01X10124Y40737D01*
G01X10063Y40757D01*
G01X9996Y40774D01*
G01X9924Y40787D01*
G01X9848Y40797D01*
G01X9766Y40803D01*
G37*

%LPD*%
G36*
G01X9740Y38794D02*
G01X9672Y38796D01*
G01X9603Y38794D01*
G01X9536Y38790D01*
G01X9472Y38783D01*
G01X9409Y38773D01*
G01X9349Y38760D01*
G01X9292Y38745D01*
G01X9236Y38727D01*
G01X9182Y38707D01*
G01X9131Y38684D01*
G01X9083Y38659D01*
G01X9036Y38632D01*
G01X8993Y38602D01*
G01X8952Y38570D01*
G01X8913Y38535D01*
G01X8876Y38499D01*
G01X8842Y38461D01*
G01X8811Y38420D01*
G01X8782Y38377D01*
G01X8757Y38333D01*
G01X8733Y38286D01*
G01X8712Y38239D01*
G01X8694Y38189D01*
G01X8678Y38137D01*
G01X8666Y38084D01*
G01X8656Y38029D01*
G01X8649Y37973D01*
G01X8644Y37915D01*
G01X8643Y37856D01*
G01X8645Y37788D01*
G01X8651Y37722D01*
G01X8662Y37659D01*
G01X8676Y37598D01*
G01X8695Y37539D01*
G01X8716Y37483D01*
G01X8742Y37430D01*
G01X8771Y37379D01*
G01X8804Y37331D01*
G01X8839Y37285D01*
G01X8879Y37242D01*
G01X8921Y37202D01*
G01X8966Y37164D01*
G01X9014Y37129D01*
G01X9064Y37096D01*
G01X9118Y37066D01*
G01X9177Y37150D01*
G01X9133Y37188D01*
G01X9091Y37226D01*
G01X9053Y37266D01*
G01X9018Y37308D01*
G01X8986Y37351D01*
G01X8958Y37396D01*
G01X8933Y37445D01*
G01X8913Y37496D01*
G01X8896Y37550D01*
G01X8884Y37608D01*
G01X8877Y37670D01*
G01X8874Y37737D01*
G01X8876Y37797D01*
G01X8883Y37855D01*
G01X8893Y37911D01*
G01X8908Y37965D01*
G01X8927Y38016D01*
G01X8950Y38065D01*
G01X8977Y38112D01*
G01X9008Y38155D01*
G01X9043Y38196D01*
G01X9083Y38234D01*
G01X9126Y38269D01*
G01X9174Y38301D01*
G01X9226Y38329D01*
G01X9282Y38354D01*
G01X9342Y38376D01*
G01X9407Y38394D01*
G01X9475Y38409D01*
G01X9548Y38420D01*
G01X9624Y38427D01*
G01X9705Y38430D01*
G01X9702Y37089D01*
G01X9749Y37077D01*
G01X9804Y37067D01*
G01X9866Y37061D01*
G01X9934Y37059D01*
G01X10006Y37061D01*
G01X10075Y37068D01*
G01X10142Y37080D01*
G01X10205Y37097D01*
G01X10266Y37118D01*
G01X10323Y37142D01*
G01X10377Y37171D01*
G01X10427Y37204D01*
G01X10474Y37241D01*
G01X10517Y37281D01*
G01X10556Y37324D01*
G01X10592Y37371D01*
G01X10624Y37421D01*
G01X10652Y37474D01*
G01X10676Y37529D01*
G01X10695Y37587D01*
G01X10711Y37647D01*
G01X10722Y37709D01*
G01X10729Y37774D01*
G01X10731Y37841D01*
G01X10730Y37895D01*
G01X10725Y37950D01*
G01X10717Y38003D01*
G01X10706Y38055D01*
G01X10692Y38107D01*
G01X10675Y38157D01*
G01X10656Y38206D01*
G01X10634Y38254D01*
G01X10608Y38301D01*
G01X10580Y38346D01*
G01X10550Y38390D01*
G01X10516Y38432D01*
G01X10481Y38472D01*
G01X10443Y38510D01*
G01X10401Y38547D01*
G01X10358Y38582D01*
G01X10313Y38614D01*
G01X10265Y38644D01*
G01X10215Y38671D01*
G01X10163Y38696D01*
G01X10108Y38719D01*
G01X10052Y38739D01*
G01X9994Y38756D01*
G01X9933Y38770D01*
G01X9870Y38781D01*
G01X9806Y38789D01*
G01X9740Y38794D01*
G37*

%LPC*%
G36*
G01X9952Y38417D02*
G01X9862Y38428D01*
G01X9855Y37622D01*
G01X9859Y37560D01*
G01X9872Y37510D01*
G01X9891Y37471D01*
G01X9919Y37442D01*
G01X9952Y37421D01*
G01X9992Y37408D01*
G01X10037Y37401D01*
G01X10086Y37399D01*
G01X10150Y37403D01*
G01X10211Y37414D01*
G01X10271Y37433D01*
G01X10327Y37458D01*
G01X10379Y37490D01*
G01X10425Y37527D01*
G01X10467Y37571D01*
G01X10503Y37619D01*
G01X10532Y37673D01*
G01X10553Y37731D01*
G01X10567Y37793D01*
G01X10571Y37859D01*
G01X10569Y37907D01*
G01X10561Y37955D01*
G01X10548Y38002D01*
G01X10530Y38050D01*
G01X10506Y38095D01*
G01X10477Y38140D01*
G01X10443Y38182D01*
G01X10403Y38223D01*
G01X10356Y38261D01*
G01X10304Y38296D01*
G01X10246Y38328D01*
G01X10182Y38357D01*
G01X10111Y38381D01*
G01X10035Y38401D01*
G01X9952Y38417D01*
G37*

%LPD*%
G36*
G01X11607Y35776D02*
G01X11480Y35776D01*
G01X11447Y35436D01*
G01X9411Y35436D01*
G01X9351Y35437D01*
G01X9290Y35438D01*
G01X9229Y35438D01*
G01X9105Y35440D01*
G01X9044Y35441D01*
G01X8984Y35442D01*
G01X8927Y35442D01*
G01X8872Y35443D01*
G01X8826Y35756D01*
G01X8697Y35756D01*
G01X8653Y35136D01*
G01X8940Y35100D01*
G01X8886Y35053D01*
G01X8837Y35005D01*
G01X8795Y34957D01*
G01X8760Y34908D01*
G01X8729Y34858D01*
G01X8704Y34809D01*
G01X8684Y34759D01*
G01X8668Y34709D01*
G01X8657Y34659D01*
G01X8649Y34610D01*
G01X8644Y34561D01*
G01X8643Y34514D01*
G01X8645Y34460D01*
G01X8650Y34408D01*
G01X8658Y34357D01*
G01X8669Y34308D01*
G01X8683Y34260D01*
G01X8701Y34213D01*
G01X8721Y34168D01*
G01X8744Y34124D01*
G01X8770Y34082D01*
G01X8798Y34042D01*
G01X8830Y34003D01*
G01X8863Y33966D01*
G01X8900Y33931D01*
G01X8939Y33898D01*
G01X8980Y33867D01*
G01X9024Y33837D01*
G01X9070Y33810D01*
G01X9117Y33785D01*
G01X9168Y33762D01*
G01X9220Y33741D01*
G01X9274Y33723D01*
G01X9331Y33706D01*
G01X9389Y33692D01*
G01X9448Y33681D01*
G01X9510Y33672D01*
G01X9573Y33665D01*
G01X9638Y33661D01*
G01X9705Y33660D01*
G01X9784Y33662D01*
G01X9860Y33667D01*
G01X9934Y33676D01*
G01X10005Y33688D01*
G01X10073Y33703D01*
G01X10137Y33722D01*
G01X10199Y33742D01*
G01X10258Y33767D01*
G01X10313Y33794D01*
G01X10365Y33823D01*
G01X10414Y33856D01*
G01X10460Y33890D01*
G01X10502Y33927D01*
G01X10541Y33966D01*
G01X10576Y34008D01*
G01X10608Y34051D01*
G01X10637Y34096D01*
G01X10662Y34143D01*
G01X10682Y34192D01*
G01X10700Y34242D01*
G01X10713Y34294D01*
G01X10723Y34347D01*
G01X10729Y34402D01*
G01X10731Y34458D01*
G01X10729Y34513D01*
G01X10723Y34568D01*
G01X10712Y34623D01*
G01X10698Y34678D01*
G01X10679Y34733D01*
G01X10656Y34787D01*
G01X10628Y34841D01*
G01X10596Y34895D01*
G01X10558Y34947D01*
G01X10517Y34999D01*
G01X10470Y35050D01*
G01X10419Y35100D01*
G01X11158Y35100D01*
G01X11752Y35090D01*
G01X11783Y35143D01*
G01X11607Y35776D01*
G37*

%LPC*%
G36*
G01X10282Y35093D02*
G01X9085Y35093D01*
G01X9028Y35029D01*
G01X8980Y34965D01*
G01X8940Y34901D01*
G01X8909Y34837D01*
G01X8885Y34774D01*
G01X8869Y34712D01*
G01X8860Y34650D01*
G01X8857Y34590D01*
G01X8858Y34545D01*
G01X8864Y34501D01*
G01X8873Y34459D01*
G01X8886Y34417D01*
G01X8902Y34376D01*
G01X8923Y34337D01*
G01X8948Y34299D01*
G01X8977Y34263D01*
G01X9010Y34229D01*
G01X9047Y34196D01*
G01X9089Y34166D01*
G01X9135Y34139D01*
G01X9186Y34114D01*
G01X9241Y34091D01*
G01X9301Y34072D01*
G01X9366Y34056D01*
G01X9436Y34043D01*
G01X9510Y34033D01*
G01X9590Y34028D01*
G01X9675Y34026D01*
G01X9756Y34027D01*
G01X9835Y34032D01*
G01X9908Y34041D01*
G01X9978Y34052D01*
G01X10043Y34066D01*
G01X10105Y34084D01*
G01X10162Y34104D01*
G01X10215Y34126D01*
G01X10263Y34152D01*
G01X10308Y34180D01*
G01X10348Y34210D01*
G01X10384Y34243D01*
G01X10416Y34278D01*
G01X10444Y34315D01*
G01X10467Y34354D01*
G01X10486Y34394D01*
G01X10501Y34437D01*
G01X10512Y34481D01*
G01X10518Y34527D01*
G01X10520Y34574D01*
G01X10518Y34624D01*
G01X10512Y34678D01*
G01X10500Y34735D01*
G01X10479Y34796D01*
G01X10449Y34862D01*
G01X10407Y34933D01*
G01X10352Y35010D01*
G01X10282Y35093D01*
G37*

%LPD*%
G36*
G01X7995Y33484D02*
G01X7919Y33520D01*
G01X7863Y33512D01*
G01X7812Y33490D01*
G01X7766Y33454D01*
G01X7728Y33408D01*
G01X7697Y33352D01*
G01X7674Y33289D01*
G01X7660Y33220D01*
G01X7655Y33147D01*
G01X7657Y33109D01*
G01X7661Y33071D01*
G01X7668Y33034D01*
G01X7679Y32998D01*
G01X7693Y32961D01*
G01X7710Y32925D01*
G01X7731Y32889D01*
G01X7755Y32854D01*
G01X7782Y32819D01*
G01X7813Y32784D01*
G01X7847Y32749D01*
G01X7885Y32714D01*
G01X7928Y32680D01*
G01X7973Y32646D01*
G01X8023Y32612D01*
G01X8076Y32578D01*
G01X8134Y32544D01*
G01X8195Y32510D01*
G01X8261Y32476D01*
G01X8331Y32443D01*
G01X8405Y32409D01*
G01X8483Y32376D01*
G01X8566Y32342D01*
G01X8653Y32309D01*
G01X10505Y31608D01*
G01X10543Y31374D01*
G01X10673Y31374D01*
G01X10673Y32182D01*
G01X10543Y32182D01*
G01X10503Y31806D01*
G01X9019Y32332D01*
G01X10505Y32880D01*
G01X10543Y32517D01*
G01X10673Y32517D01*
G01X10673Y33508D01*
G01X10543Y33508D01*
G01X10513Y33271D01*
G01X8575Y32494D01*
G01X8529Y32515D01*
G01X8467Y32538D01*
G01X8406Y32564D01*
G01X8346Y32591D01*
G01X8288Y32619D01*
G01X8232Y32649D01*
G01X8177Y32681D01*
G01X8126Y32715D01*
G01X8076Y32751D01*
G01X8030Y32789D01*
G01X7985Y32830D01*
G01X7944Y32873D01*
G01X7907Y32918D01*
G01X7937Y32949D01*
G01X8005Y33026D01*
G01X8052Y33097D01*
G01X8080Y33171D01*
G01X8090Y33254D01*
G01X8079Y33343D01*
G01X8048Y33422D01*
G01X7995Y33484D01*
G37*

%LPD*%
G36*
G01X8841Y30216D02*
G01X8697Y30216D01*
G01X8697Y28067D01*
G01X9438Y28044D01*
G01X9438Y28250D01*
G01X8880Y28362D01*
G01X8880Y29431D01*
G01X8934Y29432D01*
G01X9046Y29434D01*
G01X9101Y29435D01*
G01X9157Y29435D01*
G01X9269Y29437D01*
G01X9382Y29437D01*
G01X9440Y29438D01*
G01X9730Y29438D01*
G01X9790Y29439D01*
G01X10033Y29439D01*
G01X10033Y28806D01*
G01X9629Y28750D01*
G01X9629Y28578D01*
G01X10612Y28578D01*
G01X10612Y28750D01*
G01X10200Y28811D01*
G01X10200Y29439D01*
G01X10412Y29439D01*
G01X10482Y29438D01*
G01X10759Y29438D01*
G01X10828Y29437D01*
G01X10965Y29436D01*
G01X11033Y29435D01*
G01X11102Y29435D01*
G01X11170Y29434D01*
G01X11237Y29432D01*
G01X11305Y29431D01*
G01X11305Y28440D01*
G01X10754Y28331D01*
G01X10754Y28125D01*
G01X11488Y28148D01*
G01X11488Y30216D01*
G01X11343Y30216D01*
G01X11303Y29827D01*
G01X10889Y29821D01*
G01X10750Y29821D01*
G01X10611Y29820D01*
G01X9500Y29820D01*
G01X9432Y29821D01*
G01X9294Y29821D01*
G01X9156Y29823D01*
G01X8951Y29826D01*
G01X8882Y29827D01*
G01X8841Y30216D01*
G37*

%LPD*%
G36*
G01X10673Y27976D02*
G01X10536Y27976D01*
G01X10503Y27739D01*
G01X8669Y26990D01*
G01X8669Y26817D01*
G01X10482Y26137D01*
G01X10536Y25900D01*
G01X10673Y25900D01*
G01X10673Y26670D01*
G01X10536Y26670D01*
G01X10482Y26327D01*
G01X9088Y26810D01*
G01X10495Y27341D01*
G01X10536Y26977D01*
G01X10673Y26977D01*
G01X10673Y27976D01*
G37*

%LPD*%
G36*
G01X9740Y25754D02*
G01X9672Y25756D01*
G01X9603Y25754D01*
G01X9536Y25750D01*
G01X9472Y25742D01*
G01X9409Y25733D01*
G01X9349Y25720D01*
G01X9292Y25705D01*
G01X9236Y25687D01*
G01X9182Y25667D01*
G01X9131Y25644D01*
G01X9083Y25619D01*
G01X9036Y25591D01*
G01X8993Y25561D01*
G01X8952Y25529D01*
G01X8913Y25495D01*
G01X8876Y25458D01*
G01X8842Y25420D01*
G01X8811Y25379D01*
G01X8782Y25337D01*
G01X8757Y25292D01*
G01X8733Y25246D01*
G01X8712Y25197D01*
G01X8694Y25147D01*
G01X8678Y25095D01*
G01X8666Y25042D01*
G01X8656Y24987D01*
G01X8649Y24931D01*
G01X8644Y24873D01*
G01X8643Y24813D01*
G01X8645Y24745D01*
G01X8651Y24680D01*
G01X8662Y24617D01*
G01X8676Y24556D01*
G01X8695Y24498D01*
G01X8716Y24442D01*
G01X8742Y24389D01*
G01X8771Y24338D01*
G01X8804Y24291D01*
G01X8839Y24245D01*
G01X8879Y24202D01*
G01X8921Y24161D01*
G01X8966Y24123D01*
G01X9014Y24088D01*
G01X9064Y24056D01*
G01X9118Y24026D01*
G01X9177Y24110D01*
G01X9133Y24147D01*
G01X9091Y24185D01*
G01X9053Y24225D01*
G01X9018Y24266D01*
G01X8986Y24309D01*
G01X8958Y24355D01*
G01X8933Y24404D01*
G01X8913Y24455D01*
G01X8896Y24509D01*
G01X8884Y24568D01*
G01X8877Y24630D01*
G01X8874Y24696D01*
G01X8876Y24756D01*
G01X8883Y24814D01*
G01X8893Y24870D01*
G01X8908Y24924D01*
G01X8927Y24975D01*
G01X8950Y25024D01*
G01X8977Y25070D01*
G01X9008Y25113D01*
G01X9043Y25155D01*
G01X9083Y25193D01*
G01X9126Y25227D01*
G01X9174Y25259D01*
G01X9226Y25288D01*
G01X9282Y25313D01*
G01X9342Y25335D01*
G01X9407Y25354D01*
G01X9475Y25369D01*
G01X9548Y25379D01*
G01X9624Y25386D01*
G01X9705Y25390D01*
G01X9702Y24049D01*
G01X9749Y24035D01*
G01X9804Y24026D01*
G01X9866Y24020D01*
G01X9934Y24018D01*
G01X10006Y24020D01*
G01X10075Y24028D01*
G01X10142Y24040D01*
G01X10205Y24056D01*
G01X10266Y24077D01*
G01X10323Y24102D01*
G01X10377Y24131D01*
G01X10427Y24163D01*
G01X10474Y24200D01*
G01X10517Y24239D01*
G01X10556Y24282D01*
G01X10592Y24329D01*
G01X10624Y24379D01*
G01X10652Y24431D01*
G01X10676Y24486D01*
G01X10695Y24544D01*
G01X10711Y24604D01*
G01X10722Y24667D01*
G01X10729Y24731D01*
G01X10731Y24798D01*
G01X10730Y24853D01*
G01X10725Y24907D01*
G01X10717Y24961D01*
G01X10706Y25013D01*
G01X10692Y25065D01*
G01X10675Y25116D01*
G01X10656Y25165D01*
G01X10634Y25213D01*
G01X10608Y25260D01*
G01X10580Y25306D01*
G01X10550Y25349D01*
G01X10516Y25391D01*
G01X10481Y25432D01*
G01X10443Y25470D01*
G01X10401Y25507D01*
G01X10358Y25541D01*
G01X10313Y25573D01*
G01X10265Y25603D01*
G01X10215Y25631D01*
G01X10163Y25656D01*
G01X10108Y25678D01*
G01X10052Y25698D01*
G01X9994Y25715D01*
G01X9933Y25729D01*
G01X9870Y25741D01*
G01X9806Y25749D01*
G01X9740Y25754D01*
G37*

%LPC*%
G36*
G01X9952Y25374D02*
G01X9862Y25385D01*
G01X9855Y24582D01*
G01X9859Y24520D01*
G01X9872Y24469D01*
G01X9891Y24430D01*
G01X9919Y24400D01*
G01X9952Y24379D01*
G01X9992Y24366D01*
G01X10037Y24358D01*
G01X10086Y24356D01*
G01X10150Y24360D01*
G01X10211Y24371D01*
G01X10271Y24390D01*
G01X10327Y24416D01*
G01X10379Y24447D01*
G01X10425Y24485D01*
G01X10467Y24529D01*
G01X10503Y24578D01*
G01X10532Y24631D01*
G01X10553Y24689D01*
G01X10567Y24752D01*
G01X10571Y24818D01*
G01X10569Y24866D01*
G01X10561Y24914D01*
G01X10548Y24961D01*
G01X10530Y25008D01*
G01X10506Y25054D01*
G01X10477Y25098D01*
G01X10443Y25141D01*
G01X10403Y25182D01*
G01X10356Y25219D01*
G01X10304Y25255D01*
G01X10246Y25286D01*
G01X10182Y25315D01*
G01X10111Y25339D01*
G01X10035Y25359D01*
G01X9952Y25374D01*
G37*

%LPD*%
G36*
G01X10497Y23683D02*
G01X10373Y23683D01*
G01X10337Y23350D01*
G01X10276Y23347D01*
G01X10214Y23345D01*
G01X10153Y23344D01*
G01X10089Y23342D01*
G01X10022Y23341D01*
G01X9950Y23341D01*
G01X9873Y23340D01*
G01X9468Y23340D01*
G01X9411Y23341D01*
G01X9290Y23341D01*
G01X9229Y23342D01*
G01X9167Y23343D01*
G01X9105Y23343D01*
G01X9044Y23344D01*
G01X8984Y23345D01*
G01X8927Y23346D01*
G01X8872Y23348D01*
G01X8826Y23655D01*
G01X8697Y23655D01*
G01X8697Y22695D01*
G01X8826Y22695D01*
G01X8872Y22984D01*
G01X8927Y22985D01*
G01X8984Y22987D01*
G01X9044Y22988D01*
G01X9167Y22990D01*
G01X9229Y22990D01*
G01X9290Y22991D01*
G01X9351Y22991D01*
G01X9411Y22992D01*
G01X10190Y22992D01*
G01X10237Y22939D01*
G01X10279Y22887D01*
G01X10317Y22836D01*
G01X10350Y22786D01*
G01X10379Y22738D01*
G01X10403Y22690D01*
G01X10423Y22642D01*
G01X10439Y22595D01*
G01X10451Y22549D01*
G01X10460Y22503D01*
G01X10465Y22457D01*
G01X10467Y22410D01*
G01X10464Y22352D01*
G01X10455Y22300D01*
G01X10441Y22253D01*
G01X10419Y22212D01*
G01X10391Y22176D01*
G01X10355Y22145D01*
G01X10312Y22119D01*
G01X10260Y22099D01*
G01X10199Y22082D01*
G01X10129Y22071D01*
G01X10050Y22064D01*
G01X9962Y22062D01*
G01X9465Y22062D01*
G01X9407Y22063D01*
G01X9347Y22063D01*
G01X9286Y22064D01*
G01X9224Y22065D01*
G01X9101Y22067D01*
G01X9041Y22068D01*
G01X8982Y22069D01*
G01X8925Y22069D01*
G01X8872Y22070D01*
G01X8826Y22380D01*
G01X8697Y22380D01*
G01X8697Y21420D01*
G01X8826Y21420D01*
G01X8872Y21712D01*
G01X8925Y21713D01*
G01X8982Y21714D01*
G01X9041Y21715D01*
G01X9101Y21716D01*
G01X9162Y21717D01*
G01X9224Y21718D01*
G01X9286Y21718D01*
G01X9347Y21719D01*
G01X9465Y21719D01*
G01X9520Y21720D01*
G01X9972Y21720D01*
G01X10050Y21721D01*
G01X10124Y21725D01*
G01X10193Y21732D01*
G01X10257Y21741D01*
G01X10317Y21753D01*
G01X10373Y21768D01*
G01X10424Y21785D01*
G01X10472Y21805D01*
G01X10514Y21828D01*
G01X10553Y21854D01*
G01X10588Y21882D01*
G01X10619Y21913D01*
G01X10646Y21946D01*
G01X10669Y21982D01*
G01X10688Y22020D01*
G01X10704Y22062D01*
G01X10716Y22106D01*
G01X10724Y22152D01*
G01X10729Y22201D01*
G01X10731Y22253D01*
G01X10729Y22302D01*
G01X10724Y22350D01*
G01X10715Y22400D01*
G01X10704Y22450D01*
G01X10689Y22499D01*
G01X10671Y22548D01*
G01X10650Y22597D01*
G01X10627Y22646D01*
G01X10600Y22694D01*
G01X10571Y22741D01*
G01X10539Y22788D01*
G01X10505Y22834D01*
G01X10468Y22878D01*
G01X10429Y22921D01*
G01X10388Y22964D01*
G01X10345Y23005D01*
G01X10688Y23038D01*
G01X10726Y23096D01*
G01X10497Y23683D01*
G37*

%LPD*%
G36*
G01X9749Y21116D02*
G01X9680Y21118D01*
G01X9612Y21116D01*
G01X9547Y21111D01*
G01X9483Y21105D01*
G01X9421Y21095D01*
G01X9362Y21083D01*
G01X9304Y21067D01*
G01X9248Y21050D01*
G01X9195Y21030D01*
G01X9144Y21007D01*
G01X9095Y20982D01*
G01X9048Y20955D01*
G01X9004Y20925D01*
G01X8962Y20893D01*
G01X8922Y20859D01*
G01X8885Y20822D01*
G01X8850Y20784D01*
G01X8818Y20744D01*
G01X8789Y20701D01*
G01X8761Y20657D01*
G01X8737Y20611D01*
G01X8715Y20562D01*
G01X8697Y20513D01*
G01X8680Y20461D01*
G01X8667Y20407D01*
G01X8657Y20352D01*
G01X8649Y20296D01*
G01X8645Y20237D01*
G01X8643Y20178D01*
G01X8645Y20106D01*
G01X8652Y20038D01*
G01X8663Y19972D01*
G01X8677Y19910D01*
G01X8696Y19850D01*
G01X8719Y19794D01*
G01X8746Y19740D01*
G01X8776Y19690D01*
G01X8811Y19643D01*
G01X8849Y19599D01*
G01X8891Y19559D01*
G01X8937Y19521D01*
G01X8986Y19486D01*
G01X9039Y19455D01*
G01X9094Y19427D01*
G01X9154Y19403D01*
G01X9192Y19487D01*
G01X9144Y19522D01*
G01X9099Y19560D01*
G01X9058Y19601D01*
G01X9021Y19644D01*
G01X8988Y19691D01*
G01X8959Y19739D01*
G01X8933Y19790D01*
G01X8913Y19842D01*
G01X8896Y19897D01*
G01X8884Y19953D01*
G01X8876Y20011D01*
G01X8874Y20071D01*
G01X8876Y20130D01*
G01X8884Y20187D01*
G01X8895Y20242D01*
G01X8911Y20296D01*
G01X8930Y20347D01*
G01X8955Y20396D01*
G01X8983Y20442D01*
G01X9016Y20486D01*
G01X9053Y20526D01*
G01X9094Y20565D01*
G01X9139Y20600D01*
G01X9188Y20632D01*
G01X9241Y20660D01*
G01X9298Y20686D01*
G01X9359Y20708D01*
G01X9423Y20726D01*
G01X9491Y20740D01*
G01X9563Y20751D01*
G01X9638Y20757D01*
G01X9718Y20759D01*
G01X9797Y20757D01*
G01X9873Y20752D01*
G01X9945Y20742D01*
G01X10014Y20729D01*
G01X10079Y20713D01*
G01X10140Y20693D01*
G01X10198Y20670D01*
G01X10252Y20644D01*
G01X10301Y20614D01*
G01X10347Y20582D01*
G01X10389Y20547D01*
G01X10426Y20509D01*
G01X10460Y20468D01*
G01X10489Y20426D01*
G01X10514Y20380D01*
G01X10534Y20332D01*
G01X10550Y20282D01*
G01X10562Y20230D01*
G01X10569Y20175D01*
G01X10571Y20119D01*
G01X10569Y20069D01*
G01X10562Y20013D01*
G01X10549Y19955D01*
G01X10533Y19896D01*
G01X10238Y19815D01*
G01X10159Y19789D01*
G01X10098Y19746D01*
G01X10059Y19681D01*
G01X10045Y19594D01*
G01X10055Y19526D01*
G01X10082Y19473D01*
G01X10130Y19435D01*
G01X10198Y19411D01*
G01X10254Y19424D01*
G01X10309Y19444D01*
G01X10361Y19468D01*
G01X10411Y19498D01*
G01X10457Y19532D01*
G01X10502Y19571D01*
G01X10542Y19613D01*
G01X10580Y19660D01*
G01X10613Y19710D01*
G01X10643Y19764D01*
G01X10669Y19821D01*
G01X10691Y19881D01*
G01X10708Y19943D01*
G01X10721Y20007D01*
G01X10729Y20074D01*
G01X10731Y20142D01*
G01X10730Y20196D01*
G01X10725Y20250D01*
G01X10717Y20303D01*
G01X10707Y20356D01*
G01X10694Y20408D01*
G01X10678Y20459D01*
G01X10659Y20509D01*
G01X10638Y20558D01*
G01X10613Y20605D01*
G01X10586Y20651D01*
G01X10556Y20696D01*
G01X10524Y20739D01*
G01X10489Y20781D01*
G01X10452Y20820D01*
G01X10412Y20858D01*
G01X10369Y20894D01*
G01X10325Y20927D01*
G01X10278Y20958D01*
G01X10228Y20987D01*
G01X10175Y21013D01*
G01X10121Y21036D01*
G01X10065Y21057D01*
G01X10006Y21075D01*
G01X9945Y21090D01*
G01X9882Y21102D01*
G01X9816Y21110D01*
G01X9749Y21116D01*
G37*

%LPD*%
G36*
G01X9740Y19066D02*
G01X9672Y19068D01*
G01X9603Y19066D01*
G01X9536Y19062D01*
G01X9472Y19055D01*
G01X9409Y19045D01*
G01X9349Y19032D01*
G01X9292Y19017D01*
G01X9236Y18999D01*
G01X9182Y18979D01*
G01X9131Y18956D01*
G01X9083Y18931D01*
G01X9036Y18904D01*
G01X8993Y18874D01*
G01X8952Y18842D01*
G01X8913Y18807D01*
G01X8876Y18771D01*
G01X8842Y18733D01*
G01X8811Y18692D01*
G01X8782Y18649D01*
G01X8757Y18605D01*
G01X8733Y18558D01*
G01X8712Y18511D01*
G01X8694Y18461D01*
G01X8678Y18409D01*
G01X8666Y18356D01*
G01X8656Y18301D01*
G01X8649Y18245D01*
G01X8644Y18187D01*
G01X8643Y18128D01*
G01X8645Y18059D01*
G01X8651Y17994D01*
G01X8662Y17930D01*
G01X8676Y17869D01*
G01X8695Y17811D01*
G01X8716Y17755D01*
G01X8742Y17702D01*
G01X8771Y17651D01*
G01X8804Y17603D01*
G01X8839Y17557D01*
G01X8879Y17514D01*
G01X8921Y17474D01*
G01X8966Y17436D01*
G01X9014Y17401D01*
G01X9064Y17368D01*
G01X9118Y17338D01*
G01X9177Y17422D01*
G01X9133Y17459D01*
G01X9091Y17498D01*
G01X9053Y17538D01*
G01X9018Y17579D01*
G01X8986Y17623D01*
G01X8958Y17668D01*
G01X8933Y17717D01*
G01X8913Y17768D01*
G01X8896Y17822D01*
G01X8884Y17880D01*
G01X8877Y17942D01*
G01X8874Y18009D01*
G01X8876Y18069D01*
G01X8883Y18127D01*
G01X8893Y18183D01*
G01X8908Y18237D01*
G01X8927Y18288D01*
G01X8950Y18337D01*
G01X8977Y18384D01*
G01X9008Y18427D01*
G01X9043Y18468D01*
G01X9083Y18505D01*
G01X9126Y18540D01*
G01X9174Y18572D01*
G01X9226Y18601D01*
G01X9282Y18626D01*
G01X9342Y18648D01*
G01X9407Y18666D01*
G01X9475Y18681D01*
G01X9548Y18692D01*
G01X9624Y18698D01*
G01X9705Y18702D01*
G01X9702Y17361D01*
G01X9749Y17349D01*
G01X9804Y17339D01*
G01X9866Y17332D01*
G01X9934Y17330D01*
G01X10006Y17333D01*
G01X10075Y17340D01*
G01X10142Y17352D01*
G01X10205Y17369D01*
G01X10266Y17389D01*
G01X10323Y17414D01*
G01X10377Y17443D01*
G01X10427Y17476D01*
G01X10474Y17513D01*
G01X10517Y17553D01*
G01X10556Y17596D01*
G01X10592Y17643D01*
G01X10624Y17693D01*
G01X10652Y17745D01*
G01X10676Y17801D01*
G01X10695Y17859D01*
G01X10711Y17919D01*
G01X10722Y17981D01*
G01X10729Y18046D01*
G01X10731Y18113D01*
G01X10730Y18167D01*
G01X10725Y18221D01*
G01X10717Y18275D01*
G01X10706Y18327D01*
G01X10692Y18378D01*
G01X10675Y18429D01*
G01X10656Y18478D01*
G01X10634Y18526D01*
G01X10608Y18573D01*
G01X10580Y18618D01*
G01X10550Y18662D01*
G01X10516Y18704D01*
G01X10481Y18744D01*
G01X10443Y18782D01*
G01X10401Y18819D01*
G01X10358Y18853D01*
G01X10313Y18885D01*
G01X10265Y18915D01*
G01X10215Y18943D01*
G01X10163Y18968D01*
G01X10108Y18991D01*
G01X10052Y19010D01*
G01X9994Y19028D01*
G01X9933Y19042D01*
G01X9870Y19053D01*
G01X9806Y19061D01*
G01X9740Y19066D01*
G37*

%LPC*%
G36*
G01X9952Y18689D02*
G01X9862Y18699D01*
G01X9855Y17894D01*
G01X9859Y17832D01*
G01X9872Y17782D01*
G01X9891Y17743D01*
G01X9919Y17714D01*
G01X9952Y17693D01*
G01X9992Y17680D01*
G01X10037Y17673D01*
G01X10086Y17671D01*
G01X10150Y17674D01*
G01X10211Y17686D01*
G01X10271Y17705D01*
G01X10327Y17730D01*
G01X10379Y17762D01*
G01X10425Y17799D01*
G01X10467Y17843D01*
G01X10503Y17891D01*
G01X10532Y17945D01*
G01X10553Y18003D01*
G01X10567Y18065D01*
G01X10571Y18131D01*
G01X10569Y18179D01*
G01X10561Y18227D01*
G01X10548Y18274D01*
G01X10530Y18322D01*
G01X10506Y18367D01*
G01X10477Y18412D01*
G01X10443Y18454D01*
G01X10403Y18495D01*
G01X10356Y18533D01*
G01X10304Y18568D01*
G01X10246Y18600D01*
G01X10182Y18628D01*
G01X10111Y18653D01*
G01X10035Y18673D01*
G01X9952Y18689D01*
G37*

%LPD*%
G54D22*
G01X158822Y20000D02*
G01X159912Y20000D01*
G01X158822Y20726D02*
G01X159912Y20726D01*
G01X159341Y20000D02*
G01X159341Y20726D01*
G01X158822Y21590D02*
G01X159549Y21069D01*
G01X159549Y21849D01*
G01X158822Y21590D02*
G01X159912Y21590D01*
G01X153822Y20000D02*
G01X154912Y20000D01*
G01X153822Y20726D02*
G01X154912Y20726D01*
G01X154341Y20000D02*
G01X154341Y20726D01*
G01X154031Y21069D02*
G01X153977Y21173D01*
G01X153822Y21330D01*
G01X154912Y21330D01*
G01X75568Y33500D02*
G01X76658Y33500D01*
G01X75568Y34226D02*
G01X76658Y34226D01*
G01X76087Y33500D02*
G01X76087Y34226D01*
G01X75568Y34673D02*
G01X75568Y35244D01*
G01X75985Y34935D01*
G01X75985Y35090D01*
G01X76036Y35194D01*
G01X76087Y35244D01*
G01X76244Y35298D01*
G01X76348Y35298D01*
G01X76503Y35244D01*
G01X76607Y35140D01*
G01X76658Y34985D01*
G01X76658Y34830D01*
G01X76607Y34673D01*
G01X76556Y34622D01*
G01X76452Y34569D01*
G01X75568Y41499D02*
G01X76658Y41499D01*
G01X75568Y42226D02*
G01X76658Y42226D01*
G01X76087Y41499D02*
G01X76087Y42226D01*
G01X75827Y42622D02*
G01X75777Y42622D01*
G01X75673Y42673D01*
G01X75619Y42726D01*
G01X75568Y42830D01*
G01X75568Y43036D01*
G01X75619Y43140D01*
G01X75673Y43194D01*
G01X75777Y43244D01*
G01X75881Y43244D01*
G01X75985Y43194D01*
G01X76140Y43090D01*
G01X76658Y42569D01*
G01X76658Y43298D01*
G01X90500Y14137D02*
G01X90500Y13357D01*
G01X90550Y13202D01*
G01X90654Y13098D01*
G01X90812Y13047D01*
G01X90916Y13047D01*
G01X91071Y13098D01*
G01X91175Y13202D01*
G01X91226Y13357D01*
G01X91226Y14137D01*
G01X92298Y14137D02*
G01X91777Y13047D01*
G01X91569Y14137D02*
G01X92298Y14137D01*
G01X73500Y14137D02*
G01X73500Y13357D01*
G01X73550Y13202D01*
G01X73654Y13098D01*
G01X73812Y13047D01*
G01X73916Y13047D01*
G01X74071Y13098D01*
G01X74175Y13202D01*
G01X74226Y13357D01*
G01X74226Y14137D01*
G01X75244Y13773D02*
G01X75194Y13618D01*
G01X75090Y13514D01*
G01X74935Y13461D01*
G01X74881Y13461D01*
G01X74726Y13514D01*
G01X74622Y13618D01*
G01X74569Y13773D01*
G01X74569Y13824D01*
G01X74622Y13982D01*
G01X74726Y14086D01*
G01X74881Y14137D01*
G01X74935Y14137D01*
G01X75090Y14086D01*
G01X75194Y13982D01*
G01X75244Y13773D01*
G01X75244Y13514D01*
G01X75194Y13253D01*
G01X75090Y13098D01*
G01X74935Y13047D01*
G01X74830Y13047D01*
G01X74673Y13098D01*
G01X74622Y13202D01*
G01X56500Y14137D02*
G01X56500Y13357D01*
G01X56550Y13202D01*
G01X56654Y13098D01*
G01X56812Y13047D01*
G01X56916Y13047D01*
G01X57071Y13098D01*
G01X57175Y13202D01*
G01X57226Y13357D01*
G01X57226Y14137D01*
G01X57830Y14137D02*
G01X57673Y14086D01*
G01X57622Y13982D01*
G01X57622Y13878D01*
G01X57673Y13773D01*
G01X57777Y13720D01*
G01X57985Y13669D01*
G01X58140Y13618D01*
G01X58244Y13514D01*
G01X58298Y13410D01*
G01X58298Y13253D01*
G01X58244Y13149D01*
G01X58194Y13098D01*
G01X58036Y13047D01*
G01X57830Y13047D01*
G01X57673Y13098D01*
G01X57622Y13149D01*
G01X57569Y13253D01*
G01X57569Y13410D01*
G01X57622Y13514D01*
G01X57726Y13618D01*
G01X57881Y13669D01*
G01X58090Y13720D01*
G01X58194Y13773D01*
G01X58244Y13878D01*
G01X58244Y13982D01*
G01X58194Y14086D01*
G01X58036Y14137D01*
G01X57830Y14137D01*
G01X107500Y14137D02*
G01X107500Y13357D01*
G01X107550Y13202D01*
G01X107654Y13098D01*
G01X107812Y13047D01*
G01X107916Y13047D01*
G01X108071Y13098D01*
G01X108175Y13202D01*
G01X108226Y13357D01*
G01X108226Y14137D01*
G01X109194Y13982D02*
G01X109140Y14086D01*
G01X108985Y14137D01*
G01X108881Y14137D01*
G01X108726Y14086D01*
G01X108622Y13928D01*
G01X108569Y13669D01*
G01X108569Y13410D01*
G01X108622Y13202D01*
G01X108726Y13098D01*
G01X108881Y13047D01*
G01X108935Y13047D01*
G01X109090Y13098D01*
G01X109194Y13202D01*
G01X109244Y13357D01*
G01X109244Y13410D01*
G01X109194Y13565D01*
G01X109090Y13669D01*
G01X108935Y13720D01*
G01X108881Y13720D01*
G01X108726Y13669D01*
G01X108622Y13565D01*
G01X108569Y13410D01*
G01X15900Y38499D02*
G01X16680Y38499D01*
G01X16835Y38550D01*
G01X16939Y38654D01*
G01X16990Y38812D01*
G01X16990Y38916D01*
G01X16939Y39071D01*
G01X16835Y39175D01*
G01X16680Y39226D01*
G01X15900Y39226D01*
G01X15900Y39673D02*
G01X15900Y40244D01*
G01X16317Y39935D01*
G01X16317Y40090D01*
G01X16368Y40194D01*
G01X16419Y40244D01*
G01X16576Y40298D01*
G01X16680Y40298D01*
G01X16835Y40244D01*
G01X16939Y40140D01*
G01X16990Y39985D01*
G01X16990Y39830D01*
G01X16939Y39673D01*
G01X16888Y39622D01*
G01X16784Y39569D01*
G54D18*
G01X28720Y34689D02*
G01X30658Y34689D01*
G01X28720Y34689D02*
G01X28720Y35337D01*
G01X28811Y35614D01*
G01X28997Y35797D01*
G01X29182Y35891D01*
G01X29459Y35982D01*
G01X29919Y35982D01*
G01X30198Y35891D01*
G01X30381Y35797D01*
G01X30566Y35614D01*
G01X30658Y35337D01*
G01X30658Y34689D01*
G01X28720Y36592D02*
G01X30658Y36592D01*
G01X28720Y36592D02*
G01X30658Y37331D01*
G01X28720Y38070D02*
G01X30658Y37331D01*
G01X28720Y38070D02*
G01X30658Y38070D01*
G01X29182Y38771D02*
G01X29088Y38771D01*
G01X28903Y38865D01*
G01X28811Y38957D01*
G01X28720Y39142D01*
G01X28720Y39510D01*
G01X28811Y39696D01*
G01X28903Y39787D01*
G01X29088Y39881D01*
G01X29273Y39881D01*
G01X29459Y39787D01*
G01X29736Y39604D01*
G01X30658Y38680D01*
G01X30658Y39973D01*
G01X28720Y41045D02*
G01X28811Y40768D01*
G01X28997Y40674D01*
G01X29182Y40674D01*
G01X29365Y40768D01*
G01X29459Y40951D01*
G01X29550Y41321D01*
G01X29642Y41598D01*
G01X29827Y41784D01*
G01X30013Y41875D01*
G01X30289Y41875D01*
G01X30475Y41784D01*
G01X30566Y41690D01*
G01X30658Y41413D01*
G01X30658Y41045D01*
G01X30566Y40768D01*
G01X30475Y40674D01*
G01X30289Y40582D01*
G01X30013Y40582D01*
G01X29827Y40674D01*
G01X29642Y40859D01*
G01X29550Y41136D01*
G01X29459Y41507D01*
G01X29365Y41690D01*
G01X29182Y41784D01*
G01X28997Y41784D01*
G01X28811Y41690D01*
G01X28720Y41413D01*
G01X28720Y41045D01*
G01X18331Y29609D02*
G01X19286Y29973D01*
G01X18331Y30336D02*
G01X19286Y29973D01*
G01X18331Y30636D02*
G01X18377Y30681D01*
G01X18331Y30727D01*
G01X18285Y30681D01*
G01X18331Y30636D01*
G01X18649Y30681D02*
G01X19286Y30681D01*
G01X18649Y31027D02*
G01X19286Y31027D01*
G01X18832Y31027D02*
G01X18694Y31164D01*
G01X18649Y31255D01*
G01X18649Y31393D01*
G01X18694Y31481D01*
G01X18832Y31527D01*
G01X19286Y31527D01*
G01X18875Y31827D02*
G01X18875Y32645D01*
G01X39921Y29609D02*
G01X40876Y29973D01*
G01X39921Y30336D02*
G01X40876Y29973D01*
G01X39921Y30636D02*
G01X39967Y30681D01*
G01X39921Y30727D01*
G01X39875Y30681D01*
G01X39921Y30636D01*
G01X40239Y30681D02*
G01X40876Y30681D01*
G01X40239Y31027D02*
G01X40876Y31027D01*
G01X40422Y31027D02*
G01X40284Y31164D01*
G01X40239Y31255D01*
G01X40239Y31393D01*
G01X40284Y31481D01*
G01X40422Y31527D01*
G01X40876Y31527D01*
G01X40056Y32236D02*
G01X40876Y32236D01*
G01X40465Y31827D02*
G01X40465Y32645D01*
G01X31031Y44849D02*
G01X31986Y45213D01*
G01X31031Y45576D02*
G01X31986Y45213D01*
G01X31349Y46104D02*
G01X31394Y46013D01*
G01X31486Y45921D01*
G01X31620Y45876D01*
G01X31712Y45876D01*
G01X31849Y45921D01*
G01X31940Y46013D01*
G01X31986Y46104D01*
G01X31986Y46241D01*
G01X31940Y46330D01*
G01X31849Y46422D01*
G01X31712Y46467D01*
G01X31620Y46467D01*
G01X31486Y46422D01*
G01X31394Y46330D01*
G01X31349Y46241D01*
G01X31349Y46104D01*
G01X31575Y46767D02*
G01X31575Y47585D01*
G01X27221Y44849D02*
G01X28176Y45213D01*
G01X27221Y45576D02*
G01X28176Y45213D01*
G01X27539Y46104D02*
G01X27584Y46013D01*
G01X27676Y45921D01*
G01X27810Y45876D01*
G01X27902Y45876D01*
G01X28039Y45921D01*
G01X28130Y46013D01*
G01X28176Y46104D01*
G01X28176Y46241D01*
G01X28130Y46330D01*
G01X28039Y46422D01*
G01X27902Y46467D01*
G01X27810Y46467D01*
G01X27676Y46422D01*
G01X27584Y46330D01*
G01X27539Y46241D01*
G01X27539Y46104D01*
G01X27356Y47176D02*
G01X28176Y47176D01*
G01X27765Y46767D02*
G01X27765Y47585D01*
G54D22*
G01X79400Y38000D02*
G01X80180Y38000D01*
G01X80335Y38050D01*
G01X80439Y38154D01*
G01X80490Y38312D01*
G01X80490Y38416D01*
G01X80439Y38571D01*
G01X80335Y38675D01*
G01X80180Y38726D01*
G01X79400Y38726D01*
G01X79400Y39694D02*
G01X79400Y39173D01*
G01X79868Y39122D01*
G01X79817Y39173D01*
G01X79764Y39330D01*
G01X79764Y39485D01*
G01X79817Y39640D01*
G01X79919Y39744D01*
G01X80076Y39798D01*
G01X80180Y39798D01*
G01X80335Y39744D01*
G01X80439Y39640D01*
G01X80490Y39485D01*
G01X80490Y39330D01*
G01X80439Y39173D01*
G01X80388Y39122D01*
G01X80284Y39069D01*
G54D18*
G01X92220Y34190D02*
G01X94158Y34190D01*
G01X92220Y34190D02*
G01X92220Y34837D01*
G01X92311Y35114D01*
G01X92497Y35297D01*
G01X92682Y35391D01*
G01X92959Y35482D01*
G01X93419Y35482D01*
G01X93698Y35391D01*
G01X93881Y35297D01*
G01X94066Y35114D01*
G01X94158Y34837D01*
G01X94158Y34190D01*
G01X92220Y36092D02*
G01X94158Y36092D01*
G01X92220Y36092D02*
G01X94158Y36831D01*
G01X92220Y37570D02*
G01X94158Y36831D01*
G01X92220Y37570D02*
G01X94158Y37570D01*
G01X92682Y38271D02*
G01X92588Y38271D01*
G01X92403Y38365D01*
G01X92311Y38457D01*
G01X92220Y38642D01*
G01X92220Y39010D01*
G01X92311Y39196D01*
G01X92403Y39287D01*
G01X92588Y39381D01*
G01X92773Y39381D01*
G01X92959Y39287D01*
G01X93236Y39104D01*
G01X94158Y38180D01*
G01X94158Y39473D01*
G01X92220Y40545D02*
G01X92311Y40268D01*
G01X92497Y40174D01*
G01X92682Y40174D01*
G01X92865Y40268D01*
G01X92959Y40451D01*
G01X93050Y40821D01*
G01X93142Y41098D01*
G01X93327Y41284D01*
G01X93513Y41375D01*
G01X93789Y41375D01*
G01X93975Y41284D01*
G01X94066Y41190D01*
G01X94158Y40913D01*
G01X94158Y40545D01*
G01X94066Y40268D01*
G01X93975Y40174D01*
G01X93789Y40082D01*
G01X93513Y40082D01*
G01X93327Y40174D01*
G01X93142Y40359D01*
G01X93050Y40636D01*
G01X92959Y41007D01*
G01X92865Y41190D01*
G01X92682Y41284D01*
G01X92497Y41284D01*
G01X92311Y41190D01*
G01X92220Y40913D01*
G01X92220Y40545D01*
G01X81831Y29110D02*
G01X82786Y29473D01*
G01X81831Y29836D02*
G01X82786Y29473D01*
G01X81831Y30136D02*
G01X81877Y30181D01*
G01X81831Y30227D01*
G01X81785Y30181D01*
G01X81831Y30136D01*
G01X82149Y30181D02*
G01X82786Y30181D01*
G01X82149Y30527D02*
G01X82786Y30527D01*
G01X82332Y30527D02*
G01X82194Y30664D01*
G01X82149Y30755D01*
G01X82149Y30893D01*
G01X82194Y30981D01*
G01X82332Y31027D01*
G01X82786Y31027D01*
G01X82375Y31327D02*
G01X82375Y32145D01*
G01X103421Y29110D02*
G01X104376Y29473D01*
G01X103421Y29836D02*
G01X104376Y29473D01*
G01X103421Y30136D02*
G01X103467Y30181D01*
G01X103421Y30227D01*
G01X103375Y30181D01*
G01X103421Y30136D01*
G01X103739Y30181D02*
G01X104376Y30181D01*
G01X103739Y30527D02*
G01X104376Y30527D01*
G01X103922Y30527D02*
G01X103784Y30664D01*
G01X103739Y30755D01*
G01X103739Y30893D01*
G01X103784Y30981D01*
G01X103922Y31027D01*
G01X104376Y31027D01*
G01X103556Y31736D02*
G01X104376Y31736D01*
G01X103965Y31327D02*
G01X103965Y32145D01*
G01X94531Y44350D02*
G01X95486Y44713D01*
G01X94531Y45076D02*
G01X95486Y44713D01*
G01X94849Y45604D02*
G01X94894Y45513D01*
G01X94986Y45421D01*
G01X95120Y45376D01*
G01X95212Y45376D01*
G01X95349Y45421D01*
G01X95440Y45513D01*
G01X95486Y45604D01*
G01X95486Y45741D01*
G01X95440Y45830D01*
G01X95349Y45922D01*
G01X95212Y45967D01*
G01X95120Y45967D01*
G01X94986Y45922D01*
G01X94894Y45830D01*
G01X94849Y45741D01*
G01X94849Y45604D01*
G01X95075Y46267D02*
G01X95075Y47085D01*
G01X90721Y44350D02*
G01X91676Y44713D01*
G01X90721Y45076D02*
G01X91676Y44713D01*
G01X91039Y45604D02*
G01X91084Y45513D01*
G01X91176Y45421D01*
G01X91310Y45376D01*
G01X91402Y45376D01*
G01X91539Y45421D01*
G01X91630Y45513D01*
G01X91676Y45604D01*
G01X91676Y45741D01*
G01X91630Y45830D01*
G01X91539Y45922D01*
G01X91402Y45967D01*
G01X91310Y45967D01*
G01X91176Y45922D01*
G01X91084Y45830D01*
G01X91039Y45741D01*
G01X91039Y45604D01*
G01X90856Y46676D02*
G01X91676Y46676D01*
G01X91265Y46267D02*
G01X91265Y47085D01*
G54D22*
G01X50400Y38000D02*
G01X51180Y38000D01*
G01X51335Y38050D01*
G01X51439Y38154D01*
G01X51490Y38312D01*
G01X51490Y38416D01*
G01X51439Y38571D01*
G01X51335Y38675D01*
G01X51180Y38726D01*
G01X50400Y38726D01*
G01X50400Y39590D02*
G01X51127Y39069D01*
G01X51127Y39849D01*
G01X50400Y39590D02*
G01X51490Y39590D01*
G54D18*
G01X62450Y32000D02*
G01X64388Y32000D01*
G01X62450Y32000D02*
G01X62450Y32647D01*
G01X62541Y32924D01*
G01X62727Y33107D01*
G01X62912Y33201D01*
G01X63189Y33292D01*
G01X63649Y33292D01*
G01X63928Y33201D01*
G01X64111Y33107D01*
G01X64296Y32924D01*
G01X64388Y32647D01*
G01X64388Y32000D01*
G01X62450Y33902D02*
G01X64388Y33902D01*
G01X62450Y33902D02*
G01X64388Y34641D01*
G01X62450Y35380D02*
G01X64388Y34641D01*
G01X62450Y35380D02*
G01X64388Y35380D01*
G01X62912Y36081D02*
G01X62818Y36081D01*
G01X62633Y36175D01*
G01X62541Y36267D01*
G01X62450Y36452D01*
G01X62450Y36820D01*
G01X62541Y37006D01*
G01X62633Y37097D01*
G01X62818Y37191D01*
G01X63003Y37191D01*
G01X63189Y37097D01*
G01X63466Y36914D01*
G01X64388Y35990D01*
G01X64388Y37283D01*
G01X62450Y38355D02*
G01X62541Y38078D01*
G01X62727Y37984D01*
G01X62912Y37984D01*
G01X63095Y38078D01*
G01X63189Y38261D01*
G01X63280Y38631D01*
G01X63372Y38908D01*
G01X63557Y39094D01*
G01X63743Y39185D01*
G01X64019Y39185D01*
G01X64205Y39094D01*
G01X64296Y39000D01*
G01X64388Y38723D01*
G01X64388Y38355D01*
G01X64296Y38078D01*
G01X64205Y37984D01*
G01X64019Y37892D01*
G01X63743Y37892D01*
G01X63557Y37984D01*
G01X63372Y38169D01*
G01X63280Y38446D01*
G01X63189Y38817D01*
G01X63095Y39000D01*
G01X62912Y39094D01*
G01X62727Y39094D01*
G01X62541Y39000D01*
G01X62450Y38723D01*
G01X62450Y38355D01*
G01X52831Y29110D02*
G01X53786Y29473D01*
G01X52831Y29836D02*
G01X53786Y29473D01*
G01X52831Y30136D02*
G01X52877Y30181D01*
G01X52831Y30227D01*
G01X52785Y30181D01*
G01X52831Y30136D01*
G01X53149Y30181D02*
G01X53786Y30181D01*
G01X53149Y30527D02*
G01X53786Y30527D01*
G01X53332Y30527D02*
G01X53194Y30664D01*
G01X53149Y30755D01*
G01X53149Y30893D01*
G01X53194Y30981D01*
G01X53332Y31027D01*
G01X53786Y31027D01*
G01X53375Y31327D02*
G01X53375Y32145D01*
G01X74421Y29110D02*
G01X75376Y29473D01*
G01X74421Y29836D02*
G01X75376Y29473D01*
G01X74421Y30136D02*
G01X74467Y30181D01*
G01X74421Y30227D01*
G01X74375Y30181D01*
G01X74421Y30136D01*
G01X74739Y30181D02*
G01X75376Y30181D01*
G01X74739Y30527D02*
G01X75376Y30527D01*
G01X74922Y30527D02*
G01X74784Y30664D01*
G01X74739Y30755D01*
G01X74739Y30893D01*
G01X74784Y30981D01*
G01X74922Y31027D01*
G01X75376Y31027D01*
G01X74556Y31736D02*
G01X75376Y31736D01*
G01X74965Y31327D02*
G01X74965Y32145D01*
G01X65531Y44350D02*
G01X66486Y44713D01*
G01X65531Y45076D02*
G01X66486Y44713D01*
G01X65849Y45604D02*
G01X65894Y45513D01*
G01X65986Y45421D01*
G01X66120Y45376D01*
G01X66212Y45376D01*
G01X66349Y45421D01*
G01X66440Y45513D01*
G01X66486Y45604D01*
G01X66486Y45741D01*
G01X66440Y45830D01*
G01X66349Y45922D01*
G01X66212Y45967D01*
G01X66120Y45967D01*
G01X65986Y45922D01*
G01X65894Y45830D01*
G01X65849Y45741D01*
G01X65849Y45604D01*
G01X66075Y46267D02*
G01X66075Y47085D01*
G01X61721Y44350D02*
G01X62676Y44713D01*
G01X61721Y45076D02*
G01X62676Y44713D01*
G01X62039Y45604D02*
G01X62084Y45513D01*
G01X62176Y45421D01*
G01X62310Y45376D01*
G01X62402Y45376D01*
G01X62539Y45421D01*
G01X62630Y45513D01*
G01X62676Y45604D01*
G01X62676Y45741D01*
G01X62630Y45830D01*
G01X62539Y45922D01*
G01X62402Y45967D01*
G01X62310Y45967D01*
G01X62176Y45922D01*
G01X62084Y45830D01*
G01X62039Y45741D01*
G01X62039Y45604D01*
G01X61856Y46676D02*
G01X62676Y46676D01*
G01X62265Y46267D02*
G01X62265Y47085D01*
G54D22*
G01X10162Y7536D02*
G01X11252Y7536D01*
G01X10162Y7536D02*
G01X10162Y7899D01*
G01X10213Y8057D01*
G01X10317Y8158D01*
G01X10421Y8212D01*
G01X10579Y8262D01*
G01X10838Y8262D01*
G01X10993Y8212D01*
G01X11097Y8158D01*
G01X11201Y8057D01*
G01X11252Y7899D01*
G01X11252Y7536D01*
G01X10421Y9385D02*
G01X10317Y9334D01*
G01X10213Y9230D01*
G01X10162Y9126D01*
G01X10162Y8918D01*
G01X10213Y8814D01*
G01X10317Y8709D01*
G01X10421Y8659D01*
G01X10579Y8605D01*
G01X10838Y8605D01*
G01X10993Y8659D01*
G01X11097Y8709D01*
G01X11201Y8814D01*
G01X11252Y8918D01*
G01X11252Y9126D01*
G01X11201Y9230D01*
G01X11097Y9334D01*
G01X10993Y9385D01*
G01X10370Y9728D02*
G01X10317Y9832D01*
G01X10162Y9987D01*
G01X11252Y9987D01*
G01X22662Y8036D02*
G01X23752Y8036D01*
G01X22662Y8036D02*
G01X22662Y8399D01*
G01X22713Y8557D01*
G01X22817Y8658D01*
G01X22921Y8712D01*
G01X23079Y8762D01*
G01X23338Y8762D01*
G01X23493Y8712D01*
G01X23597Y8658D01*
G01X23701Y8557D01*
G01X23752Y8399D01*
G01X23752Y8036D01*
G01X22921Y9885D02*
G01X22817Y9834D01*
G01X22713Y9730D01*
G01X22662Y9626D01*
G01X22662Y9418D01*
G01X22713Y9314D01*
G01X22817Y9209D01*
G01X22921Y9159D01*
G01X23079Y9105D01*
G01X23338Y9105D01*
G01X23493Y9159D01*
G01X23597Y9209D01*
G01X23701Y9314D01*
G01X23752Y9418D01*
G01X23752Y9626D01*
G01X23701Y9730D01*
G01X23597Y9834D01*
G01X23493Y9885D01*
G01X22921Y10281D02*
G01X22870Y10281D01*
G01X22766Y10332D01*
G01X22713Y10386D01*
G01X22662Y10487D01*
G01X22662Y10695D01*
G01X22713Y10800D01*
G01X22766Y10853D01*
G01X22870Y10904D01*
G01X22975Y10904D01*
G01X23079Y10853D01*
G01X23234Y10749D01*
G01X23752Y10228D01*
G01X23752Y10957D01*
G01X143000Y-1417D02*
G01X143000Y-637D01*
G01X142949Y-482D01*
G01X142845Y-378D01*
G01X142687Y-327D01*
G01X142583Y-327D01*
G01X142428Y-378D01*
G01X142324Y-482D01*
G01X142273Y-637D01*
G01X142273Y-1417D01*
G01X141930Y-1208D02*
G01X141826Y-1262D01*
G01X141669Y-1417D01*
G01X141669Y-327D01*
G54D18*
G01X146500Y20450D02*
G01X146500Y22388D01*
G01X146500Y20450D02*
G01X145207Y22388D01*
G01X145207Y20450D02*
G01X145207Y22388D01*
G01X143858Y20450D02*
G01X144597Y22388D01*
G01X143858Y20450D02*
G01X143119Y22388D01*
G01X144320Y21743D02*
G01X143396Y21743D01*
G01X142509Y20450D02*
G01X142509Y22388D01*
G01X142509Y20450D02*
G01X141216Y22388D01*
G01X141216Y20450D02*
G01X141216Y22388D01*
G01X140053Y20450D02*
G01X140238Y20541D01*
G01X140421Y20727D01*
G01X140515Y20912D01*
G01X140607Y21189D01*
G01X140607Y21649D01*
G01X140515Y21928D01*
G01X140421Y22111D01*
G01X140238Y22296D01*
G01X140053Y22388D01*
G01X139682Y22388D01*
G01X139499Y22296D01*
G01X139314Y22111D01*
G01X139222Y21928D01*
G01X139128Y21649D01*
G01X139128Y21189D01*
G01X139222Y20912D01*
G01X139314Y20727D01*
G01X139499Y20541D01*
G01X139682Y20450D01*
G01X140053Y20450D01*
G01X146263Y39621D02*
G01X146718Y39621D01*
G01X146764Y40030D01*
G01X146718Y39984D01*
G01X146583Y39939D01*
G01X146446Y39939D01*
G01X146309Y39984D01*
G01X146218Y40076D01*
G01X146172Y40210D01*
G01X146172Y40302D01*
G01X146218Y40439D01*
G01X146309Y40530D01*
G01X146446Y40576D01*
G01X146583Y40576D01*
G01X146718Y40530D01*
G01X146764Y40485D01*
G01X146810Y40393D01*
G01X145872Y39621D02*
G01X145509Y40576D01*
G01X145146Y39621D02*
G01X145509Y40576D01*
G01X141049Y39847D02*
G01X141092Y39756D01*
G01X141183Y39667D01*
G01X141275Y39621D01*
G01X141458Y39621D01*
G01X141547Y39667D01*
G01X141638Y39756D01*
G01X141684Y39847D01*
G01X141730Y39984D01*
G01X141730Y40210D01*
G01X141684Y40348D01*
G01X141638Y40439D01*
G01X141547Y40530D01*
G01X141458Y40576D01*
G01X141275Y40576D01*
G01X141183Y40530D01*
G01X141092Y40439D01*
G01X141049Y40348D01*
G01X141049Y40210D01*
G01X141275Y40210D02*
G01X141049Y40210D01*
G01X140747Y39621D02*
G01X140747Y40576D01*
G01X140747Y39621D02*
G01X140112Y40576D01*
G01X140112Y39621D02*
G01X140112Y40576D01*
G01X139812Y39621D02*
G01X139812Y40576D01*
G01X139812Y39621D02*
G01X139494Y39621D01*
G01X139357Y39667D01*
G01X139266Y39756D01*
G01X139220Y39847D01*
G01X139174Y39984D01*
G01X139174Y40210D01*
G01X139220Y40348D01*
G01X139266Y40439D01*
G01X139357Y40530D01*
G01X139494Y40576D01*
G01X139812Y40576D01*
G01X150620Y4061D02*
G01X150620Y5016D01*
G01X150620Y4061D02*
G01X150302Y4061D01*
G01X150165Y4107D01*
G01X150073Y4196D01*
G01X150028Y4287D01*
G01X149982Y4424D01*
G01X149982Y4650D01*
G01X150028Y4788D01*
G01X150073Y4879D01*
G01X150165Y4970D01*
G01X150302Y5016D01*
G01X150620Y5016D01*
G01X149682Y4241D02*
G01X149593Y4196D01*
G01X149456Y4061D01*
G01X149456Y5016D01*
G01X149065Y4061D02*
G01X148565Y4061D01*
G01X148836Y4424D01*
G01X148702Y4424D01*
G01X148610Y4470D01*
G01X148565Y4516D01*
G01X148519Y4650D01*
G01X148519Y4742D01*
G01X148565Y4879D01*
G01X148656Y4970D01*
G01X148793Y5016D01*
G01X148928Y5016D01*
G01X149065Y4970D01*
G01X149111Y4925D01*
G01X149156Y4833D01*
G01X136650Y4061D02*
G01X136650Y5016D01*
G01X136650Y4061D02*
G01X136332Y4061D01*
G01X136195Y4107D01*
G01X136103Y4196D01*
G01X136058Y4287D01*
G01X136012Y4424D01*
G01X136012Y4650D01*
G01X136058Y4788D01*
G01X136103Y4879D01*
G01X136195Y4970D01*
G01X136332Y5016D01*
G01X136650Y5016D01*
G01X135712Y4241D02*
G01X135623Y4196D01*
G01X135486Y4061D01*
G01X135486Y5016D01*
G01X135141Y4287D02*
G01X135141Y4241D01*
G01X135095Y4153D01*
G01X135049Y4107D01*
G01X134958Y4061D01*
G01X134778Y4061D01*
G01X134686Y4107D01*
G01X134640Y4153D01*
G01X134595Y4241D01*
G01X134595Y4333D01*
G01X134640Y4424D01*
G01X134732Y4561D01*
G01X135186Y5016D01*
G01X134549Y5016D01*
G54D22*
G01X124000Y40609D02*
G01X124000Y39829D01*
G01X124050Y39672D01*
G01X124154Y39568D01*
G01X124312Y39517D01*
G01X124416Y39517D01*
G01X124571Y39568D01*
G01X124675Y39672D01*
G01X124726Y39829D01*
G01X124726Y40609D01*
G01X125122Y40348D02*
G01X125122Y40401D01*
G01X125173Y40505D01*
G01X125226Y40556D01*
G01X125330Y40609D01*
G01X125536Y40609D01*
G01X125640Y40556D01*
G01X125694Y40505D01*
G01X125744Y40401D01*
G01X125744Y40297D01*
G01X125694Y40193D01*
G01X125590Y40038D01*
G01X125069Y39517D01*
G01X125798Y39517D01*
G54D18*
G01X124000Y27279D02*
G01X124739Y25341D01*
G01X125478Y27279D02*
G01X124739Y25341D01*
G01X126087Y24694D02*
G01X127749Y24694D01*
G01X129097Y27279D02*
G01X128358Y25341D01*
G01X129097Y27279D02*
G01X129836Y25341D01*
G01X128635Y25986D02*
G01X129560Y25986D01*
G01X124637Y19753D02*
G01X124546Y19842D01*
G01X124408Y19888D01*
G01X124226Y19888D01*
G01X124091Y19842D01*
G01X124000Y19753D01*
G01X124000Y19662D01*
G01X124045Y19570D01*
G01X124091Y19525D01*
G01X124182Y19479D01*
G01X124454Y19387D01*
G01X124546Y19344D01*
G01X124591Y19299D01*
G01X124637Y19207D01*
G01X124637Y19070D01*
G01X124546Y18979D01*
G01X124408Y18933D01*
G01X124226Y18933D01*
G01X124091Y18979D01*
G01X124000Y19070D01*
G01X125346Y19753D02*
G01X125346Y18933D01*
G01X124937Y19344D02*
G01X125755Y19344D01*
G01X128180Y37282D02*
G01X128137Y37373D01*
G01X128046Y37462D01*
G01X127954Y37508D01*
G01X127771Y37508D01*
G01X127682Y37462D01*
G01X127591Y37373D01*
G01X127545Y37282D01*
G01X127499Y37145D01*
G01X127499Y36919D01*
G01X127545Y36781D01*
G01X127591Y36690D01*
G01X127682Y36599D01*
G01X127771Y36553D01*
G01X127954Y36553D01*
G01X128046Y36599D01*
G01X128137Y36690D01*
G01X128180Y36781D01*
G01X128180Y36919D01*
G01X127954Y36919D02*
G01X128180Y36919D01*
G01X128482Y37508D02*
G01X128482Y36553D01*
G01X128482Y37508D02*
G01X129117Y36553D01*
G01X129117Y37508D02*
G01X129117Y36553D01*
G01X129417Y37508D02*
G01X129417Y36553D01*
G01X129417Y37508D02*
G01X129735Y37508D01*
G01X129872Y37462D01*
G01X129963Y37373D01*
G01X130009Y37282D01*
G01X130055Y37145D01*
G01X130055Y36919D01*
G01X130009Y36781D01*
G01X129963Y36690D01*
G01X129872Y36599D01*
G01X129735Y36553D01*
G01X129417Y36553D01*
G01X119363Y31008D02*
G01X118999Y30053D01*
G01X119363Y31008D02*
G01X119726Y30053D01*
G01X119137Y30373D02*
G01X119591Y30373D01*
G01X120026Y31008D02*
G01X120026Y30053D01*
G01X120026Y30053D02*
G01X120572Y30053D01*
G01X121555Y30782D02*
G01X121509Y30873D01*
G01X121418Y30962D01*
G01X121326Y31008D01*
G01X121146Y31008D01*
G01X121054Y30962D01*
G01X120963Y30873D01*
G01X120917Y30782D01*
G01X120871Y30645D01*
G01X120871Y30419D01*
G01X120917Y30281D01*
G01X120963Y30190D01*
G01X121054Y30099D01*
G01X121146Y30053D01*
G01X121326Y30053D01*
G01X121418Y30099D01*
G01X121509Y30190D01*
G01X121555Y30281D01*
M00*
M02*
